<svg width="140" height="140" viewBox="0 0 140 140" fill="none" xmlns="http://www.w3.org/2000/svg">
<path d="M70 140C108.66 140 140 108.66 140 70C140 31.3401 108.66 0 70 0C31.3401 0 0 31.3401 0 70C0 108.66 31.3401 140 70 140Z" fill="#353650"/>
<path d="M69.3663 133.013L69.1638 132.617L70.4295 131.959L70.632 132.347L69.3663 133.013Z" fill="white"/>
<path d="M25.0345 112.899C25.0345 112.899 70.9699 100.292 77.9226 96.9089C82.0993 94.8754 74.2184 93.306 70.5142 92.3694C66.81 91.4328 50.2298 87.3657 41.3869 86.3701C33.447 85.4757 15.9132 87.6104 15.9132 87.6104L10.859 88.2095L13.9472 98.0817L25.0345 112.907V112.899Z" fill="#41B27D"/>
<path d="M80.2184 97.7694C70.3799 93.8542 61.7143 91.2469 52.1205 89.3147C38.0294 86.4711 25.2714 86.4964 9.47588 89.3906L8.85149 85.9649C25.1111 82.9863 38.2572 82.961 52.8124 85.8974C62.6172 87.8718 71.4684 90.5382 81.5094 94.5292L80.2184 97.7694Z" fill="white"/>
<path d="M129.2 90.8918C128.356 92.8072 118.096 117.842 101.001 124.491C83.906 131.132 70.0005 135.654 47.4547 129.208C32.292 124.871 25.3899 113.311 25.3899 113.311L52.3149 105.312L90.0572 94.0391L116.704 90.6218" fill="#0A7DD6"/>
<path d="M69.9996 134.422C34.4765 134.422 5.57699 105.523 5.57699 69.9995C5.57699 34.4764 34.4765 5.5769 69.9996 5.5769C105.523 5.5769 134.422 34.4764 134.422 69.9995C134.422 105.523 105.523 134.422 69.9996 134.422ZM69.9996 9.07015C36.4003 9.06172 9.0618 36.4002 9.0618 69.9995C9.0618 103.599 36.4003 130.937 69.9996 130.937C103.599 130.937 130.937 103.599 130.937 69.9995C130.937 36.4002 103.599 9.06172 69.9996 9.06172V9.07015Z" fill="white"/>
<path d="M24.1828 114.762L23.7778 111.303C29.6842 110.602 35.9535 109.024 42.4169 106.611C65.6124 97.9455 99.8614 86.7063 129.343 89.1533L129.056 92.6296C100.266 90.2502 66.5237 101.337 43.6403 109.877C36.9154 112.391 30.3677 114.036 24.1828 114.762Z" fill="white"/>
</svg>
