<svg width="100" height="26" viewBox="0 0 100 26" fill="none" xmlns="http://www.w3.org/2000/svg">
<g clip-path="url(#clip0_890_36946)">
<path d="M27.4037 8.14405L24.7499 1.39478H20.599L18.7197 14.3502H22.8499L23.4607 10.1405L23.7986 7.80493L26.507 14.3502H30.6372L32.5164 1.39478H28.3862L27.8222 5.27554L27.4037 8.14405Z" fill="#353750"/>
<path d="M31.981 14.3502H39.9762L40.4882 10.8111H36.8467L37.0338 9.55918H40.3609L40.8469 6.19092H37.5225L37.6993 4.93387H41.3382L41.8528 1.39478H33.8602L31.981 14.3502Z" fill="#353750"/>
<path d="M62.8752 14.3502H67.2264L67.9177 9.55408H71.2603L71.7412 6.18582H68.409L68.5935 4.93387H72.2403L72.7523 1.39478H64.7545L62.8752 14.3502Z" fill="#353750"/>
<path d="M72.1052 14.3502H76.4511L78.3304 1.39478H73.9845L72.1052 14.3502Z" fill="#353750"/>
<path d="M85.5457 1.39478H81.101L77.2983 14.3502H81.4753L83.2402 7.79728L84.0459 14.3502H86.9467L89.5017 7.79473V14.3502H93.3849V1.39478H88.8285L86.328 7.80493L85.5457 1.39478Z" fill="#353750"/>
<path d="M96.8238 1.39478H94.708V1.86649H95.467V3.83747H96.0648V1.86649H96.8238V1.39478ZM99.4568 1.86394V3.83747H100V1.39478H99.1241L98.5627 2.8405L98.0012 1.39478H97.1253V3.83747H97.6685V1.86394L98.4015 3.83747H98.7212L99.4568 1.86394Z" fill="#353750"/>
<path d="M56.9568 5.48208H57.1076L57.3051 9.38069H55.3687L56.9568 5.48208ZM57.5573 14.3502H61.9188L60.1513 1.39478H55.3739L48.7693 14.3502H53.3413L53.9937 12.749H57.4767L57.5599 14.3502H57.5573Z" fill="#353750"/>
<path d="M42.4636 4.9925L44.8549 4.93896L43.4903 14.3502H47.8076L49.1748 4.93386L51.5453 4.9925L52.0678 1.39221H42.9887L42.4636 4.9925Z" fill="#353750"/>
<path d="M12.1358 0L10.3839 3.94706C10.072 4.661 9.76272 5.37749 9.44562 6.09143C8.98815 7.12409 8.60607 8.15675 8.8374 9.29905C8.99075 10.0691 9.37804 10.6963 10.0434 11.2904C10.8648 12.0299 12.128 12.0222 12.1332 12.0222C12.1332 12.0222 13.4016 12.0299 14.2256 11.2904C14.8936 10.6938 15.2783 10.0691 15.4342 9.29905C15.663 8.15675 15.2835 7.12664 14.826 6.09143C14.5089 5.37749 14.1996 4.66355 13.8877 3.94706L12.1358 0Z" fill="#353750"/>
<path d="M5.23229 7.08838L2.5083 13.2232C2.02744 14.3349 1.54399 15.4466 1.05273 16.5532C0.340547 18.1595 -0.252077 19.7633 0.106616 21.5405C0.345745 22.7364 0.946166 23.7079 1.98066 24.636C3.25948 25.7834 5.22189 25.7706 5.23229 25.7706C5.24009 25.7706 7.2025 25.7808 8.48392 24.636C9.51841 23.7079 10.1188 22.7338 10.3606 21.5405C10.7193 19.7633 10.1266 18.1595 9.41184 16.5532C8.92059 15.4466 8.43713 14.3323 7.95628 13.2232L5.23229 7.08838Z" fill="#353750"/>
</g>
<defs>
<clipPath id="clip0_890_36946">
<rect width="100" height="26" fill="white"/>
</clipPath>
</defs>
</svg>
