<svg width="100" height="39" viewBox="0 0 100 39" fill="none" xmlns="http://www.w3.org/2000/svg">
<g clip-path="url(#clip0_890_36935)">
<path d="M38.2742 27.0599L39.0727 25.1332L39.0913 18.3322L38.3008 16.4789V16.3218L42.1735 15.2852L42.3332 15.3637L42.3092 25.141L43.0997 27.0729V27.23L38.2742 27.2169V27.0599Z" fill="#353750"/>
<path d="M23.2068 15.0783L22.2193 17.607H22.0596C21.663 17.3191 21.1866 17.1856 20.6809 17.1856C19.3102 17.1829 18.2402 17.8871 18.2349 20.0939L18.2216 25.0833L19.3022 27.0179V27.1749L14.1865 27.1619V27.0048L14.9877 25.0755L15.0036 18.285L14.2131 16.4316V16.2746L18.0858 15.2144L18.2455 15.2929L18.2402 17.3112C19.1185 15.6437 20.4733 14.6044 21.7722 14.6071C22.3551 14.6071 22.9113 14.7929 23.2041 15.0809" fill="#353750"/>
<path d="M42.5861 11.7381C42.5834 12.8428 41.6705 13.7354 40.5499 13.7328C39.4267 13.7302 38.5218 12.8323 38.5244 11.7302C38.5271 10.6255 39.4374 9.73286 40.5606 9.73548C41.6811 9.7381 42.5887 10.636 42.5861 11.7381Z" fill="#353750"/>
<path d="M31.9023 14.5783C30.127 14.5731 28.6125 15.5102 27.7342 17.0731L27.7528 9.7852L27.5931 9.70667L23.7205 10.759V10.9161L24.511 12.7694L24.4737 27.3164L24.6068 27.3949L27.0502 26.3059C28.0243 27.0677 29.3285 27.408 30.6008 27.4106C34.3909 27.4211 37.1031 24.7143 37.1138 20.8269C37.1218 17.2013 34.9552 14.5888 31.9076 14.5809M30.7764 26.4211C27.7741 26.4132 27.7156 22.9159 27.7182 21.8321C27.7209 20.751 27.7369 17.9343 27.7369 17.9343C27.7369 17.9343 28.5886 16.9212 30.0817 16.9212C32.7913 16.9265 33.6696 19.8034 33.8133 21.4081C33.9518 22.984 33.7814 26.4289 30.7791 26.4211" fill="#353750"/>
<path d="M51.7953 18.8662C51.8858 19.1856 51.8672 19.0285 51.9044 19.4238C46.7116 20.6463 44.2922 21.7144 44.2842 24.5834C44.2789 26.3583 45.788 27.5598 47.7496 27.5651C49.5782 27.5703 51.1725 26.531 51.9444 25.175C52.0987 26.7928 52.8387 27.5258 54.0071 27.5284C55.306 27.531 56.4478 26.6227 56.7965 25.1881L56.6368 25.0834C56.4771 25.1881 56.2908 25.2379 56.0539 25.2379C55.3912 25.2379 55.1543 24.6881 55.1569 23.6463L55.1676 19.5783C55.1756 16.683 53.5094 14.6176 50.382 14.6098C47.9439 14.6045 45.7907 16.1909 45.0428 18.3793L45.3914 18.5888C46.323 17.6516 47.4861 16.9239 48.9713 16.9265C50.2409 16.9291 51.4067 17.4841 51.7953 18.8662ZM49.6633 25.2353C47.0762 25.4604 46.6051 23.285 47.3956 22.2013C47.7656 21.6934 48.6865 21.0023 51.931 20.3662C51.931 20.3662 51.9311 21.2772 51.9284 21.6201C51.9231 22.0285 52.1227 25.0206 49.6633 25.2353Z" fill="#353750"/>
<path d="M3.35956e-05 20.9316C0.0106801 17.0626 2.59512 14.5574 6.60885 14.5652C10.5427 14.5757 13.0606 17.1175 13.0527 20.9892C13.042 24.8609 10.431 27.3373 6.44383 27.3268C2.50995 27.3189 -0.0106129 24.8268 3.35956e-05 20.9316ZM9.72562 22.4185C9.73361 18.9657 7.80126 15.6673 5.72786 15.662C4.24001 15.6594 3.35901 17.094 3.35102 19.5259C3.34304 22.9525 5.27538 26.2247 7.40202 26.23C8.83664 26.2326 9.71764 24.798 9.72562 22.4185Z" fill="#353750"/>
<path d="M38.3008 27.0388L39.1019 25.1043L39.1206 18.2877L38.3274 16.429V16.272L42.2107 15.2301L42.3704 15.3086L42.3438 25.1122L43.137 27.0493V27.2064L38.3008 27.1959V27.0388Z" fill="#353750"/>
<path d="M85.2013 6.68057C82.7419 6.68057 80.3677 7.7015 78.0495 8.69625C76.7772 9.24336 75.5742 9.75906 74.3791 10.0994C69.8969 11.3768 67.7303 13.0156 65.9311 19.8767C63.9881 27.2771 65.9124 33.353 70.9536 35.7299C78.0708 39.0885 83.4446 34.5022 86.029 32.3006C86.3644 32.0153 86.6545 31.7666 86.8994 31.5755C91.339 28.12 94.2082 24.9447 94.7778 19.8139C95.6508 11.9842 90.6789 8.0994 87.9268 7.13868C87.0085 6.81669 86.1009 6.68319 85.2039 6.68319M76.0399 37.8948C74.3471 37.8948 72.5053 37.5231 70.533 36.5937C65.0474 34.0048 62.9234 27.5101 64.9915 19.6385C66.8999 12.3716 69.3459 10.5392 74.1129 9.18315C75.2468 8.86116 76.4205 8.35594 77.6662 7.82191C80.8468 6.45806 84.448 4.90834 88.2541 6.24078C91.2565 7.28789 96.6862 11.4973 95.7466 19.9212C95.2196 24.641 92.9093 28.12 87.5036 32.3268C87.2667 32.51 86.9872 32.7483 86.6678 33.0231C84.6317 34.7613 80.956 37.8948 76.0426 37.8948" fill="#353750"/>
<path d="M79.8648 30.0153C80.1815 30.0153 80.5249 30.0257 80.8922 30.0519C81.6135 30.099 82.3481 30.3241 83.1972 30.5833C84.3017 30.921 85.5501 31.3006 87.2455 31.4733C90.7881 31.832 93.2288 30.243 94.6581 28.8451C97.043 26.5101 98.3764 22.9394 98.0544 19.7484C97.8335 17.5521 97.1095 16.6961 95.9118 15.2772C95.2118 14.4474 94.3387 13.4134 93.3699 11.848C93.1437 11.4815 92.9307 11.1333 92.7258 10.8009C91.3817 8.60718 90.4102 7.02344 88.6455 5.39519C86.5881 3.49993 82.6675 3.68055 80.4158 5.77476C79.6652 6.47371 79.0078 7.17265 78.369 7.84541C77.4188 8.85063 76.4366 9.88989 75.1138 10.9867C74.2834 11.6726 73.3811 12.094 72.4256 12.5391C70.1153 13.6176 67.7251 14.7301 65.9205 19.9081C65.335 21.5861 65.6863 23.6986 66.8867 25.7012C68.4384 28.2875 71.0761 30.188 73.775 30.6566C74.994 30.8686 75.7153 30.6854 76.6256 30.4577C77.4241 30.2561 78.3823 30.0153 79.8675 30.0153M88.2649 32.4812C87.9056 32.4812 87.5356 32.4629 87.1523 32.4236C85.3611 32.243 84.0036 31.8294 82.915 31.4969C82.1219 31.2561 81.4378 31.0466 80.831 31.0048C78.888 30.8739 77.8154 31.1461 76.8678 31.3843C75.9256 31.6226 75.034 31.8477 73.6073 31.599C70.6396 31.0833 67.7438 29.01 66.051 26.1881C64.7068 23.9447 64.3236 21.5442 65.0023 19.5992C66.9426 14.0417 69.6335 12.7851 72.0103 11.6778C72.9073 11.259 73.7564 10.8637 74.4883 10.2564C75.7686 9.19618 76.7294 8.18049 77.6583 7.19621C78.3051 6.51035 78.9758 5.80094 79.7477 5.08106C82.3934 2.61774 86.8596 2.43973 89.3083 4.69624C91.1741 6.4135 92.1722 8.04698 93.5562 10.3061C93.7612 10.6386 93.9741 10.9867 94.1977 11.3506C95.1292 12.8558 95.941 13.8165 96.657 14.6673C97.884 16.1202 98.7677 17.1699 99.0179 19.6541C99.3666 23.1201 97.924 26.9944 95.3395 29.5231C93.9182 30.9158 91.5786 32.4812 88.2569 32.4812" fill="#353750"/>
<path d="M78.1986 0.955448C75.2628 0.955448 72.6437 1.69104 70.3947 3.14913C67.6053 4.95801 66.9665 6.81924 66.2904 8.7878C66.0589 9.46318 65.8193 10.1621 65.4893 10.8454C65.0714 11.7145 64.6589 12.45 64.2942 13.0966C63.1258 15.183 62.3512 16.5599 62.7691 19.84C63.706 27.1881 69.4178 29.887 74.0251 29.9655L74.5122 29.9734C78.2172 30.0336 80.0777 30.0624 82.8537 31.9393C83.2237 32.188 83.5724 32.4524 83.9131 32.7063C85.2918 33.7429 86.6013 34.7141 89.0766 34.6827C91.1926 34.6487 92.6698 33.544 94.2349 31.8974C97.6763 28.2744 99.4011 23.8661 98.9592 19.806C98.2246 13.0364 95.5923 8.8768 89.2496 4.45278C86.5747 2.58631 83.3195 1.37953 80.091 1.05492C79.4469 0.989479 78.8161 0.958066 78.1986 0.958066M88.9302 35.6408C86.218 35.6408 84.7488 34.5361 83.3249 33.4681C82.9975 33.2194 82.6568 32.9655 82.3055 32.7299C79.7689 31.0178 78.2278 30.9917 74.4989 30.9315L74.0118 30.9236C69.9901 30.8555 62.8915 28.4681 61.8083 19.9604C61.3505 16.3741 62.2288 14.806 63.4478 12.6385C63.8045 12.0024 64.209 11.2799 64.6163 10.4396C64.9224 9.80611 65.1433 9.16475 65.3748 8.48414C66.0722 6.44752 66.7961 4.34283 69.8623 2.35333C72.7768 0.463309 76.2529 -0.293225 80.1921 0.104675C83.5857 0.447602 87.0032 1.7146 89.8166 3.6753C96.4201 8.28257 99.1615 12.6281 99.9307 19.7091C100.402 24.0441 98.584 28.7273 94.9508 32.5545C93.4497 34.133 91.7037 35.6015 89.1006 35.6434C89.0447 35.6434 88.9915 35.6434 88.9356 35.6434" fill="#353750"/>
</g>
<defs>
<clipPath id="clip0_890_36935">
<rect width="100" height="39" fill="white"/>
</clipPath>
</defs>
</svg>
