<?xml version="1.0" encoding="UTF-8"?>
<svg width="20px" height="20px" viewBox="0 0 20 20" version="1.1" xmlns="http://www.w3.org/2000/svg" xmlns:xlink="http://www.w3.org/1999/xlink">
    <title>Dosing</title>
    <g id="Dosing" stroke="none" stroke-width="1" fill="none" fill-rule="evenodd">
        <path d="M14.7391406,0 C15.8179688,0 16.6956641,0.877695312 16.6956641,1.95652344 C16.6956641,2.80671875 16.1503906,3.53164062 15.3912891,3.80085937 L15.3912891,3.80085937 L15.3912891,4.3478125 L16.8260938,6.26085938 C17.1625391,6.70945312 17.3478125,7.26535156 17.3478125,7.82609375 L17.3478125,7.82609375 L17.3478125,17.3912891 C17.3478125,18.8297266 16.1775781,20 14.7391406,20 L14.7391406,20 L5.60871094,20 C4.17027344,20 3,18.8297266 3,17.3912891 L3,17.3912891 L3,7.82609375 C3,7.26535156 3.1853125,6.70945312 3.52175781,6.26085938 L3.52175781,6.26085938 L4.95652344,4.3478125 L4.95652344,3.80085937 C4.19742188,3.53164062 3.6521875,2.80671875 3.6521875,1.95652344 C3.6521875,0.877695312 4.52988281,0 5.60871094,0 L5.60871094,0 Z M14.0869531,3.91304687 L6.26085938,3.91304687 L6.26085938,4.56523438 C6.26085938,4.70628906 6.21507813,4.84359375 6.13042969,4.95652344 L6.13042969,4.95652344 L4.56523438,7.04347656 C4.39699219,7.26777344 4.30433594,7.54574219 4.30433594,7.82609375 L4.30433594,7.82609375 L4.30433594,17.3912891 C4.30433594,18.1105078 4.88949219,18.6956641 5.60871094,18.6956641 L5.60871094,18.6956641 L14.7391406,18.6956641 C15.4583594,18.6956641 16.0434766,18.1105078 16.0434766,17.3912891 L16.0434766,17.3912891 L16.0434766,7.82609375 C16.0434766,7.54574219 15.9508203,7.26777344 15.7826172,7.04347656 L15.7826172,7.04347656 L14.2173828,4.95652344 C14.1327344,4.84359375 14.0869531,4.70628906 14.0869531,4.56523438 L14.0869531,4.56523438 L14.0869531,3.91304687 Z M10.46,8 C11.1333333,8 11.6883333,8.10333333 12.125,8.31 C12.5616667,8.51666667 12.8916667,8.82333333 13.115,9.23 C13.3383333,9.63666667 13.4533333,10.1333333 13.46,10.72 C13.4733333,11.0133333 13.48,11.2733333 13.48,11.5 C13.48,11.7266667 13.4733333,11.9833333 13.46,12.27 C13.4466667,12.89 13.3333333,13.4016667 13.12,13.805 C12.9066667,14.2083333 12.585,14.5083333 12.155,14.705 C11.725,14.9016667 11.1766667,15 10.51,15 L8.02,15 C7.95333333,15 7.89666667,14.9766667 7.85,14.93 C7.80333333,14.8833333 7.78,14.8266667 7.78,14.76 L7.78,8.25 C7.78,8.17666667 7.80333333,8.11666667 7.85,8.07 C7.89666667,8.02333333 7.95333333,8 8.02,8 L10.46,8 Z M10.41,9.15 L9.17,9.15 L9.17,13.85 L10.46,13.85 C10.8333333,13.85 11.1366667,13.7966667 11.37,13.69 C11.6033333,13.5833333 11.775,13.4116667 11.885,13.175 C11.995,12.9383333 12.0533333,12.6266667 12.06,12.24 C12.0666667,12.04 12.0716667,11.865 12.075,11.715 C12.0783333,11.565 12.0783333,11.415 12.075,11.265 C12.0716667,11.115 12.0666667,10.9433333 12.06,10.75 C12.0466667,10.2033333 11.91,9.8 11.65,9.54 C11.39,9.28 10.9766667,9.15 10.41,9.15 Z M14.7391406,1.30433594 L5.60871094,1.30433594 C5.24910156,1.30433594 4.95652344,1.59691406 4.95652344,1.95652344 C4.95652344,2.31613281 5.24910156,2.60871094 5.60871094,2.60871094 L5.60871094,2.60871094 L14.7391406,2.60871094 C15.09875,2.60871094 15.3912891,2.31613281 15.3912891,1.95652344 C15.3912891,1.59691406 15.09875,1.30433594 14.7391406,1.30433594 L14.7391406,1.30433594 Z" id="Combined-Shape" fill="#373737"></path>
    </g>
</svg>