<?xml version="1.0" encoding="UTF-8"?>
<svg width="20px" height="20px" viewBox="0 0 20 20" version="1.1" xmlns="http://www.w3.org/2000/svg" xmlns:xlink="http://www.w3.org/1999/xlink">
    <title>Filter</title>
    <g id="Filter" stroke="none" stroke-width="1" fill="none" fill-rule="evenodd">
        <path d="M13.75,15.5 C14.4403559,15.5 15,16.0596441 15,16.75 C15,17.4403559 14.4403559,18 13.75,18 L6.25,18 C5.55964406,18 5,17.4403559 5,16.75 C5,16.0596441 5.55964406,15.5 6.25,15.5 L13.75,15.5 Z M16.25,9.25 C16.9403559,9.25 17.5,9.80964406 17.5,10.5 C17.5,11.1903559 16.9403559,11.75 16.25,11.75 L3.75,11.75 C3.05964406,11.75 2.5,11.1903559 2.5,10.5 C2.5,9.80964406 3.05964406,9.25 3.75,9.25 L16.25,9.25 Z M18.75,3 C19.4403559,3 20,3.55964406 20,4.25 C20,4.94035594 19.4403559,5.5 18.75,5.5 L1.25,5.5 C0.559644063,5.5 8.45442189e-17,4.94035594 0,4.25 C-8.45442189e-17,3.55964406 0.559644063,3 1.25,3 L18.75,3 Z" id="Combined-Shape" fill="#373737"></path>
    </g>
</svg>