<?xml version="1.0" encoding="UTF-8"?>
<svg viewBox="0 0 20 20" xmlns="http://www.w3.org/2000/svg">
  <path d="M2,7.47226129 C2,3.35219045 5.36458224,-5.15143483e-14 9.5,-5.15143483e-14 C13.6354178,-5.15143483e-14 17,3.35219045 17,7.47226129 C16.9965492,10.1659634 15.5417756,12.6503099 13.1897417,13.9788509 C12.8881104,14.1487212 12.5053331,14.0431317 12.334623,13.7427723 C12.1638607,13.4422566 12.2698944,13.0608949 12.5715257,12.8908163 C14.5303775,11.7844976 15.7421311,9.71568474 15.7451637,7.47226129 C15.7451637,4.04136063 12.9436369,1.25019534 9.5,1.25019534 C6.05636307,1.25019534 3.25483635,4.04136063 3.25483635,7.47226129 C3.25786887,9.71547638 4.4696225,11.7844976 6.42847433,12.8906079 C6.73010562,13.0607387 6.83613929,13.4422566 6.66537697,13.7425639 C6.4948238,14.0431317 6.11188957,14.1487212 5.81025829,13.9788509 C3.45822441,12.6503099 2.0034508,10.1659634 2,7.47226129 Z M11.7351772,10.1331979 C11.4682631,10.3533886 11.4310886,10.7473043 11.6520443,11.0132833 C11.8732615,11.2792103 12.2686395,11.3162473 12.535606,11.0961088 C14.0826623,9.82085743 14.6606713,7.71563265 13.9803409,5.83341147 C13.3002719,3.95124238 11.5080519,2.69615044 9.5,2.69615044 C7.49194813,2.69615044 5.69972812,3.95124238 5.0196591,5.83341147 C4.33932866,7.71563265 4.91733766,9.82085743 6.46439402,11.0961088 C6.73136045,11.3162473 7.12694761,11.2792103 7.34795566,11.0132833 C7.56891143,10.7473043 7.5317369,10.3533886 7.26482275,10.1331979 C6.12516993,9.19414492 5.69936212,7.64359014 6.2001464,6.25727978 C6.70113981,4.87076106 8.02112308,3.94655415 9.5,3.94655415 C10.9788769,3.94655415 12.2988602,4.87076106 12.7998536,6.25727978 C13.3006379,7.64359014 12.8748301,9.19414492 11.7351772,10.1331979 Z M17,19.3780278 C17,19.7233422 16.7189689,20.0031255 16.3725818,20.0031255 L2.62741817,20.0031255 C2.28103106,20.0031255 2,19.7233422 2,19.3780278 C2,19.0327134 2.28103106,18.7529301 2.62741817,18.7529301 L6.38863327,18.7529301 L8.85135418,9.53497942 C7.82892398,9.21571079 7.19334937,8.20076054 7.35548468,7.14549148 C7.51767228,6.09022243 8.4285789,5.31088191 9.5,5.31088191 C10.5714211,5.31088191 11.4825369,6.09022243 11.6445153,7.14549148 C11.8066506,8.20076054 11.1712852,9.21571079 10.148855,9.53497942 L12.6113667,18.7529301 L16.3725818,18.7529301 C16.7189689,18.7529301 17,19.0327134 17,19.3780278 Z M8.58543344,7.47226129 C8.58543344,7.84080846 8.80827146,8.17304787 9.14995294,8.31405949 C9.49184356,8.45527947 9.88518247,8.37714226 10.1468159,8.1166849 C10.4082401,7.85601917 10.4866674,7.46413502 10.3451323,7.12350888 C10.2033881,6.78309111 9.86986301,6.56107725 9.5,6.56107725 C8.99513751,6.56149398 8.58585172,6.96926603 8.58543344,7.47226129 Z"></path>
</svg>
