<?xml version="1.0" encoding="UTF-8"?>
<svg viewBox="0 0 20 20" xmlns="http://www.w3.org/2000/svg">
  <path d="M10.001172,5.5067062e-14 C15.5155682,5.5067062e-14 20.002344,4.48677579 20.002344,10.001172 C20.002344,15.5155682 15.5155682,20.002344 10.001172,20.002344 C4.48677579,20.002344 -3.94351218e-13,15.5155682 -3.94351218e-13,10.001172 C-3.94351218e-13,4.48677579 4.48677579,5.5067062e-14 10.001172,5.5067062e-14 Z M10.001172,0.833417979 C4.9460093,0.833417979 0.833417979,4.9460093 0.833417979,10.001172 C0.834043052,10.5603391 0.88580693,11.1182951 0.988045474,11.668047 L0.988045474,11.668047 L7.34504043,11.668047 C7.49294839,11.6679689 7.62980037,11.7462984 7.70465289,11.8738915 C8.240536,12.788569 9.09899598,13.334883 10.001172,13.334883 C10.903348,13.334883 11.761808,12.788569 12.2976911,11.8738915 C12.3725437,11.7462984 12.5093956,11.6679689 12.6573036,11.668047 L12.6573036,11.668047 L19.0142986,11.668047 C19.1165371,11.1182951 19.168301,10.5603391 19.168926,10.001172 C19.168926,4.9460093 15.0563347,0.833417979 10.001172,0.833417979 Z M13.6192913,5.95612767 C13.7641276,6.09600734 13.7857317,6.31547948 13.6817743,6.47905219 L13.6295269,6.54533734 L11.2571395,8.91772473 C11.5237332,9.22221354 11.669766,9.61370473 11.6676954,10.0184006 C11.6630465,10.9341329 10.9169043,11.672696 10.001172,11.6680689 C9.08059538,11.6680689 8.33429699,10.9217486 8.33429699,10.001172 C8.33429699,9.08059538 9.08059538,8.33429699 10.001172,8.33429699 C10.1440696,8.3356448 10.2860003,8.35558366 10.4234041,8.39343783 L10.5591671,8.43723874 L13.0402782,5.95612767 C13.2017815,5.80013283 13.457788,5.80013283 13.6192913,5.95612767 Z M18.335469,9.58444349 C18.5656132,9.58444349 18.7521975,9.77102785 18.7521975,10.001172 C18.7521975,10.2057446 18.6047728,10.3758996 18.4103742,10.4111862 L18.335469,10.4179005 L16.668633,10.4179005 C16.4384889,10.4179005 16.2519045,10.2313162 16.2519045,10.001172 C16.2519045,9.79659943 16.3993292,9.62644446 16.5937278,9.59115783 L16.668633,9.58444349 L18.335469,9.58444349 Z M3.33371098,9.58444349 C3.56385514,9.58444349 3.7504395,9.77102785 3.7504395,10.001172 C3.7504395,10.2057446 3.60301482,10.3758996 3.40861618,10.4111862 L3.33371098,10.4179005 L1.66687502,10.4179005 C1.43673087,10.4179005 1.2501465,10.2313162 1.2501465,10.001172 C1.2501465,9.79659943 1.39757119,9.62644446 1.59196982,9.59115783 L1.66687502,9.58444349 L3.33371098,9.58444349 Z M17.4370434,5.71293511 C17.5365863,5.8879898 17.4954591,6.10465033 17.3495956,6.23229277 L17.2807751,6.28116576 L16.0510607,6.98956909 C15.9876939,7.02613588 15.9158495,7.04539594 15.8426769,7.04539594 C15.6938313,7.04539594 15.5562761,6.96597257 15.4818143,6.83705122 C15.3811433,6.6626802 15.4208135,6.44574621 15.565833,6.31713487 L15.6343321,6.26780482 L16.8640466,5.55940149 C16.8656483,5.55846388 16.867211,5.55756534 16.8688128,5.5566668 C17.0688753,5.44290347 17.3232801,5.5128726 17.4370434,5.71293511 Z M3.06195741,5.52298647 L3.13868813,5.55815135 L4.36844161,6.26655467 C4.37004336,6.26749228 4.37164511,6.26842989 4.37324686,6.2693675 C4.57178576,6.38574833 4.63835606,6.64105169 4.52197523,6.83959058 C4.42010783,7.01331211 4.21190777,7.0860251 4.02844389,7.02349671 L3.95171309,6.98831894 L2.72199867,6.27991562 L2.71723249,6.27714185 C2.5186936,6.16076103 2.45208423,5.90545767 2.56846505,5.70691878 C2.67029828,5.53319725 2.87849406,5.46048426 3.06195741,5.52298647 Z M6.23139308,2.6538193 L6.28116576,2.72199867 L6.98956909,3.95171309 C6.9905067,3.95327577 6.99140524,3.95487752 6.99230379,3.95647927 C7.10606712,4.15654178 7.03609798,4.4109466 6.83603547,4.52470993 C6.66098078,4.62425284 6.44432026,4.58312559 6.31667781,4.43726216 L6.26780482,4.36844161 L5.55940149,3.13868813 C5.44669297,2.94050084 5.51420088,2.68851819 5.71090362,2.57323124 C5.88465934,2.47139802 6.10184543,2.50963675 6.23139308,2.6538193 Z M14.2866742,2.57088721 C14.4617289,2.67043013 14.5371809,2.87765168 14.4770961,3.06192796 L14.4429425,3.13911787 L13.7345392,4.36883229 C13.6194476,4.56815252 13.364613,4.63644177 13.1652928,4.52135016 C12.9908876,4.42067918 12.9168329,4.2129577 12.9781205,4.0290975 L13.0127749,3.95214283 L13.7211783,2.72238934 C13.8365043,2.5256866 14.0884869,2.45817869 14.2866742,2.57088721 Z M10.001172,1.2501465 C10.2057446,1.2501465 10.3758996,1.39757119 10.4111862,1.59196982 L10.4179005,1.66687502 L10.4179005,3.33371098 C10.4179005,3.56385514 10.2313162,3.7504395 10.001172,3.7504395 C9.79659943,3.7504395 9.62644446,3.60301482 9.59115783,3.40861618 L9.58444349,3.33371098 L9.58444349,1.66687502 C9.58444349,1.43673087 9.77102785,1.2501465 10.001172,1.2501465 Z"></path>
</svg>
