<?xml version="1.0" encoding="UTF-8"?>
<svg viewBox="0 0 20 20" xmlns="http://www.w3.org/2000/svg">
  <path d="M17,2 C18.6568542,2 20,3.34314575 20,5 L20,15 C20,16.6568542 18.6568542,18 17,18 L3,18 C1.34314575,18 0,16.6568542 0,15 L0,5 C-2.02906125e-16,3.34314575 1.34314575,2 3,2 L17,2 Z M19,9 L1,9 L1,15 C1,16.0543618 1.81587779,16.9181651 2.85073766,16.9945143 L3,17 L17,17 C18.0543618,17 18.9181651,16.1841222 18.9945143,15.1492623 L19,15 L19,9 Z M12,11.5 C12.5522847,11.5 13,11.9477153 13,12.5 C13,13.0522847 12.5522847,13.5 12,13.5 C11.4477153,13.5 11,13.0522847 11,12.5 C11,11.9477153 11.4477153,11.5 12,11.5 Z M16,11.5 C16.5522847,11.5 17,11.9477153 17,12.5 C17,13.0522847 16.5522847,13.5 16,13.5 C15.4477153,13.5 15,13.0522847 15,12.5 C15,11.9477153 15.4477153,11.5 16,11.5 Z M8,11.5 C8.55228475,11.5 9,11.9477153 9,12.5 C9,13.0522847 8.55228475,13.5 8,13.5 C7.44771525,13.5 7,13.0522847 7,12.5 C7,11.9477153 7.44771525,11.5 8,11.5 Z M4,11.5 C4.55228475,11.5 5,11.9477153 5,12.5 C5,13.0522847 4.55228475,13.5 4,13.5 C3.44771525,13.5 3,13.0522847 3,12.5 C3,11.9477153 3.44771525,11.5 4,11.5 Z"></path>
</svg>
