<?xml version="1.0" encoding="UTF-8"?>
<svg width="20px" height="20px" viewBox="0 0 20 20" version="1.1" xmlns="http://www.w3.org/2000/svg" xmlns:xlink="http://www.w3.org/1999/xlink">
    <title>Valve</title>
    <g id="Valve" stroke="none" stroke-width="1" fill="none" fill-rule="evenodd">
        <path d="M18.2804167,3 L13.9855729,3 C13.85375,3 13.7259896,3.04432292 13.6224479,3.12614583 L11.9260417,4.46520833 L4.84536458,4.46520833 C4.52166667,4.46520833 4.25921875,4.72770833 4.25921875,5.05135417 L4.25921875,8.56822917 C4.25921875,8.85182292 4.46067708,9.0884375 4.72817708,9.14276042 L4.72817708,11.2254687 L3.8665625,11.2254687 C3.84645833,10.9201042 3.59291667,10.6783854 3.28244792,10.6783854 C2.95880208,10.6783854 2.69635417,10.9408333 2.69635417,11.2645312 L2.69635417,11.6160937 L0.586145833,11.6160937 C0.262447917,11.6160937 0,11.8785417 0,12.2024479 L0,15.6411979 C0,15.9648438 0.262447917,16.2272917 0.586145833,16.2272917 L2.69635417,16.2272917 L2.69635417,16.5788542 C2.69635417,16.9025521 2.95880208,17.165 3.28244792,17.165 C3.59291667,17.165 3.84645833,16.9233333 3.8665625,16.6179167 L10.7478646,16.6179167 C10.7682292,16.9233333 11.0215104,17.165 11.3321875,17.165 C11.6558854,17.165 11.9183333,16.9025521 11.9183333,16.5788542 L11.9183333,16.2272917 L14.0283333,16.2272917 C14.3520313,16.2272917 14.6144792,15.9648438 14.6144792,15.6411979 L14.6144792,12.2024479 C14.6144792,11.8785417 14.3520313,11.6160937 14.0283333,11.6160937 L11.9183333,11.6160937 L11.9183333,11.2645312 C11.9183333,10.9408333 11.6558854,10.6783854 11.3321875,10.6783854 C11.0217187,10.6783854 10.7682292,10.9201042 10.7480729,11.2254687 L9.88625,11.2254687 L9.88625,9.14276042 C10.1538021,9.0884375 10.3552083,8.85182292 10.3552083,8.56822917 L10.3552083,7.98208333 L12.9435417,7.98208333 C13.0751562,7.98208333 13.203125,7.93770833 13.3066667,7.8559375 L15.0030729,6.51682292 L18.2804167,6.51682292 C19.2286979,6.51682292 20,5.74536458 20,4.79723958 L20,4.71932292 C20,3.77125 19.2286979,3 18.2804167,3 Z M5.43151042,7.98208333 L9.18291667,7.98208333 L9.18291667,5.6375 L5.43151042,5.6375 L5.43151042,7.98208333 Z M1.17229167,15.0548438 L2.69635417,15.0548438 L2.69635417,12.7885938 L1.17229167,12.7885938 L1.17229167,15.0548438 Z M11.9183333,15.0548438 L13.4421875,15.0548438 L13.4421875,12.7885938 L11.9183333,12.7885938 L11.9183333,15.0548438 Z M5.90046875,11.2254688 L8.71401042,11.2254688 L8.71401042,9.154375 L5.90046875,9.154375 L5.90046875,11.2254688 Z M18.8277083,4.79723958 C18.8277083,5.09895833 18.5821354,5.34453125 18.2804167,5.34453125 L14.7995833,5.34453125 C14.6677604,5.34453125 14.5397917,5.38890625 14.4364583,5.47046875 L12.7398438,6.80979167 L10.3552083,6.80979167 L10.3552083,5.6375 L12.1295313,5.6375 C12.2613542,5.6375 12.3893229,5.59317708 12.4926563,5.51135417 L14.1890625,4.17223958 L18.280625,4.17223958 C18.5823438,4.17223958 18.8277083,4.41760417 18.8277083,4.71932292 L18.8277083,4.79723958 Z" id="014-valve-2" fill="#373737"></path>
    </g>
</svg>