<?xml version="1.0" encoding="UTF-8"?>
<svg viewBox="0 0 20 20" xmlns="http://www.w3.org/2000/svg">
  <path d="M15,1 C16.1045695,1 17,1.8954305 17,3 L17,10 C18.6568542,10 20,11.3431458 20,13 L20,16 C20,17.6568542 18.6568542,19 17,19 L3,19 C1.34314575,19 2.02906125e-16,17.6568542 0,16 L0,13 C-2.02906125e-16,11.3431458 1.34314575,10 3,10 L3,3 C3,1.8954305 3.8954305,1 5,1 C6.1045695,1 7,1.8954305 7,3 L7,10 L13,10 L13,3 C13,1.8954305 13.8954305,1 15,1 Z M15.5,13 L9.5,13 C8.67157288,13 8,13.6715729 8,14.5 C8,15.3284271 8.67157288,16 9.5,16 L9.5,16 L15.5,16 C16.3284271,16 17,15.3284271 17,14.5 C17,13.6715729 16.3284271,13 15.5,13 L15.5,13 Z M4.5,13 C3.67157288,13 3,13.6715729 3,14.5 C3,15.3284271 3.67157288,16 4.5,16 C5.32842712,16 6,15.3284271 6,14.5 C6,13.6715729 5.32842712,13 4.5,13 Z M5,2 C4.48716416,2 4.06449284,2.38604019 4.00672773,2.88337887 L4,3 L4,10 L6,10 L6,3 C6,2.44771525 5.55228475,2 5,2 Z M15,2 C14.4871642,2 14.0644928,2.38604019 14.0067277,2.88337887 L14,3 L14,10 L16,10 L16,3 C16,2.44771525 15.5522847,2 15,2 Z"></path>
</svg>
