<svg width="24" height="24" viewBox="0 0 24 24" fill="none" xmlns="http://www.w3.org/2000/svg">
    <path fill-rule="evenodd" clip-rule="evenodd" d="M1.414 12c0 3.164 1.285 6.19 3.526 8.302.29.274.316.744.055 1.05a.684.684 0 0 1-.998.058C1.457 19.016 0 15.586 0 12c0-3.586 1.457-7.016 3.997-9.41a.683.683 0 0 1 .998.058.772.772 0 0 1-.055 1.05C2.7 5.81 1.414 8.836 1.414 12zM22.98 6.866a12.599 12.599 0 0 0-2.766-4.105.682.682 0 0 0-.999.033c-.267.3-.253.77.031 1.052a11.12 11.12 0 0 1 2.44 3.622c.597 1.42.9 2.933.9 4.499 0 1.582-.31 3.11-.917 4.54a11.104 11.104 0 0 1-2.486 3.643.772.772 0 0 0-.04 1.051.685.685 0 0 0 1 .041 12.587 12.587 0 0 0 2.817-4.127A13.095 13.095 0 0 0 24 11.967c0-1.774-.343-3.49-1.02-5.1zm-16.905 5.08c0 1.548.668 2.98 1.831 3.93a.77.77 0 0 1 .125 1.044.68.68 0 0 1-.992.131c-1.51-1.233-2.378-3.094-2.378-5.105 0-1.935.814-3.752 2.233-4.984a.683.683 0 0 1 .996.1.771.771 0 0 1-.095 1.048c-1.093.948-1.72 2.347-1.72 3.836zm11.028-4.93a.683.683 0 0 0-.995.1.771.771 0 0 0 .095 1.048c1.093.948 1.72 2.347 1.72 3.836 0 1.49-.627 2.887-1.72 3.836a.771.771 0 0 0-.095 1.048.682.682 0 0 0 .995.1c1.42-1.233 2.234-3.05 2.234-4.984 0-1.935-.814-3.751-2.234-4.984zM12 8.73c-1.713 0-3.107 1.467-3.107 3.27s1.394 3.27 3.107 3.27c1.713 0 3.107-1.467 3.107-3.27S13.713 8.73 12 8.73z" fill="#373737"/>
</svg>
