<?xml version="1.0" encoding="UTF-8"?>
<svg viewBox="0 0 20 20" xmlns="http://www.w3.org/2000/svg">
  <path d="M9.540625,13.8665625 C11.2005729,13.7298437 12.7677604,13.0511458 14.0079688,11.9201562 C15.251875,10.7857292 16.0750521,9.2834375 16.361875,7.6428125 L19.375,7.6428125 C19.7202604,7.6428125 20,7.36286458 20,7.0178125 C20,4.43848958 17.9016146,2.3403125 15.3224479,2.3403125 C12.9551042,2.3403125 10.9930208,4.10786458 10.6866667,6.3928125 L6.57244792,6.3928125 L6.57244792,4.3325 C6.57244792,3.61265625 6.27723958,2.96083333 5.80197917,2.490625 L5.80197917,1.75234375 C5.80197917,0.786145833 5.01588542,0 4.0496875,0 C3.08348958,0 2.29734375,0.786145833 2.29734375,1.75234375 L2.29734375,2.3659375 C2.2790625,2.38161458 2.26072917,2.39703125 2.2428125,2.41333333 C1.8521875,2.76755208 1.58119792,3.22651042 1.46036458,3.73046875 L0.3125,4.393125 C0.11921875,4.50479167 0,4.71109375 0,4.93427083 C0,5.15765625 0.11921875,5.36395833 0.3125,5.47567708 L1.38916667,6.0971875 L1.38916667,7.01760417 C1.38916667,7.03796875 1.39015625,7.05833333 1.3921875,7.07864583 C1.57447917,8.93739583 2.43776042,10.6567187 3.82322917,11.9201562 C5.06328125,13.0511458 6.63046875,13.7298437 8.290625,13.8665625 L8.290625,15.7444271 L4.383125,15.7444271 L4.383125,14.4982812 C4.383125,14.2732813 4.26229167,14.0657292 4.0665625,13.9546875 C3.87083333,13.8435938 3.63078125,13.84625 3.4375,13.9615625 L0.304583333,15.8329167 C0.11578125,15.945625 0,16.1494792 0,16.3694271 C0,16.589375 0.11578125,16.7932292 0.304583333,16.9061458 L3.43770833,18.7772396 C3.53619792,18.8360417 3.64703125,18.8655729 3.758125,18.8655729 C3.86453125,18.8655729 3.97072917,18.8384896 4.0665625,18.7841667 C4.26229167,18.6730729 4.383125,18.4655729 4.383125,18.2405729 L4.383125,16.9944271 L8.290625,16.9944271 L8.290625,19.375 C8.290625,19.7202604 8.57036458,20 8.915625,20 C9.26067708,20 9.540625,19.7202604 9.540625,19.375 L9.540625,16.9944271 L13.9815104,16.9944271 L14.8315625,18.0908333 C14.9499479,18.2435937 15.1322396,18.3329167 15.3255208,18.3329167 L18.7892708,18.3329167 C19.0277083,18.3329167 19.2454167,18.1970312 19.3503646,17.9829688 C19.4553646,17.76875 19.4293229,17.5134375 19.2830208,17.3250521 L18.5425,16.3694271 L19.2830208,15.4138021 C19.4293229,15.2254167 19.4553646,14.9701042 19.3503646,14.7558333 C19.2454167,14.5418229 19.0277083,14.4059375 18.7892708,14.4059375 L15.3255208,14.4059375 C15.1322396,14.4059375 14.9499479,14.4954167 14.8315625,14.6480208 L13.9815104,15.7444271 L9.540625,15.7444271 L9.540625,13.8665625 Z M15.816875,6.39260417 L14.1448958,6.39260417 C14.3693229,5.97145833 14.8128125,5.68421875 15.3224479,5.68421875 C15.8321354,5.68421875 16.275625,5.97145833 16.5000521,6.39260417 L15.816875,6.39260417 Z M15.3224479,3.5903125 C16.9991146,3.5903125 18.3982292,4.80020833 18.6928125,6.3928125 L17.8291667,6.3928125 C17.5490104,5.26916667 16.5315625,4.43421875 15.3224479,4.43421875 C14.1133854,4.43421875 13.0960938,5.26916667 12.8157292,6.3928125 L11.9522917,6.3928125 C12.2469271,4.80020833 13.6460417,3.5903125 15.3224479,3.5903125 Z M3.54734375,1.75234375 C3.54734375,1.47520833 3.7728125,1.25 4.0496875,1.25 C4.3265625,1.25 4.55197917,1.47520833 4.55197917,1.75234375 L4.55197917,1.805 C4.36807292,1.76348958 4.17703125,1.7409375 3.9809375,1.7409375 C3.83442708,1.7409375 3.68979167,1.75395833 3.54734375,1.77817708 L3.54734375,1.75234375 Z M2.33765625,4.66713542 C2.51098958,4.56723958 2.62572917,4.39046875 2.64666667,4.19166667 C2.71791667,3.51828125 3.30385417,2.9909375 3.9809375,2.9909375 C4.27651042,2.9909375 4.54994792,3.08713542 4.77192708,3.24989583 C4.78859375,3.26416667 4.80609375,3.27760417 4.82421875,3.29 C5.12776042,3.53619792 5.32244792,3.91192708 5.32244792,4.3325 L5.32244792,6.3928125 L2.639375,6.3928125 L2.639375,5.73651042 C2.639375,5.513125 2.52015625,5.30682292 2.326875,5.1953125 L1.875,4.93427083 L2.33765625,4.66713542 Z M2.74151042,7.64260417 L15.0895312,7.64260417 C14.4854687,10.5369271 11.9429687,12.6426042 8.915625,12.6426042 C5.88807292,12.6426042 3.34552083,10.5369271 2.74151042,7.64260417 Z"></path>
</svg>
