<svg width="24" height="24" viewBox="0 0 24 24" fill="none" xmlns="http://www.w3.org/2000/svg">
<path d="M11.9687 23.3637C10.9732 23.3637 9.98637 23.2341 9.03544 22.9781C4.93766 21.8758 1.7291 18.4813 0.861317 14.3296C-0.0230935 10.1001 1.60919 5.65402 5.02037 3.00254C6.99224 1.46959 9.47918 0.625 12.0234 0.625C13.7848 0.625 15.534 1.0346 17.0822 1.80874C20.9056 3.72153 23.3759 7.71779 23.3759 11.9902C23.3759 15.4762 21.731 18.8362 18.9758 20.9778C16.9969 22.5165 14.5082 23.3637 11.9687 23.3637ZM12.0239 2.37544C9.8669 2.37544 7.76112 3.08875 6.09514 4.38451C3.20822 6.62858 1.82625 10.3916 2.575 13.9712C3.30931 17.4831 6.02381 20.3551 9.49056 21.2877C10.2931 21.5034 11.1272 21.6132 11.9687 21.6132H11.9692C14.1214 21.6132 16.228 20.8969 17.9019 19.5959C20.2339 17.7833 21.6259 14.9401 21.6259 11.9902C21.6259 8.37508 19.5355 4.99323 16.2998 3.37451C14.9931 2.72115 13.5148 2.37544 12.0239 2.37544Z" fill="#53585C"/>
<path d="M11.9981 17.6339C11.515 17.6339 11.1229 17.2418 11.1229 16.7587V9.84666C11.1229 9.36353 11.515 8.97144 11.9981 8.97144C12.4812 8.97144 12.8733 9.36353 12.8733 9.84666V16.7587C12.8733 17.2423 12.4816 17.6339 11.9981 17.6339Z" fill="#53585C"/>
<path d="M11.9981 8.09687C11.7662 8.09687 11.543 8.00497 11.3811 7.83868C11.2148 7.67676 11.1229 7.45358 11.1229 7.22165C11.1229 6.98971 11.2148 6.76653 11.3811 6.60462C11.7049 6.27641 12.2913 6.27641 12.6151 6.60024C12.7814 6.76653 12.8733 6.98971 12.8733 7.22165C12.8733 7.4492 12.7814 7.67676 12.6151 7.83868C12.4532 8.00497 12.23 8.09687 11.9981 8.09687Z" fill="#53585C"/>
</svg>
