<svg width="13" height="13" viewBox="0 0 13 13" fill="none" xmlns="http://www.w3.org/2000/svg">
<path fill-rule="evenodd" clip-rule="evenodd" d="M11.1073 5.39338H7.11761V1.27322C7.11761 0.704645 6.67175 0.243225 6.12015 0.243225C5.56856 0.243225 5.12269 0.704645 5.12269 1.27322V5.39338H1.13296C0.581362 5.39338 0.135498 5.8548 0.135498 6.42338C0.135498 6.99196 0.581362 7.45343 1.13296 7.45343H5.12269V11.5735C5.12269 12.1421 5.56856 12.6036 6.12015 12.6036C6.67175 12.6036 7.11761 12.1421 7.11761 11.5735V7.45343H11.1073C11.6589 7.45343 12.1048 6.99196 12.1048 6.42338C12.1048 5.8548 11.6589 5.39338 11.1073 5.39338Z" fill="#0973E7"/>
</svg>
