<svg width="29" height="25" viewBox="0 0 29 25" fill="none" xmlns="http://www.w3.org/2000/svg">
<path fill-rule="evenodd" clip-rule="evenodd" d="M5.66578 23.9584H23.3307C26.1716 23.9584 27.931 20.9541 26.4804 18.5773L17.648 2.78556C16.229 0.461939 12.7697 0.458852 11.3488 2.78556L2.51688 18.5773C1.06622 20.9517 2.82253 23.9584 5.66578 23.9584V23.9584Z" stroke="#373737" stroke-width="2"/>
<path fill-rule="evenodd" clip-rule="evenodd" d="M14.4999 7.29163C13.9257 7.29163 13.4583 7.82583 13.4583 8.4821V14.4345C13.4583 15.0908 13.9257 15.625 14.4999 15.625C15.0742 15.625 15.5416 15.0908 15.5416 14.4345V8.4821C15.5416 7.82583 15.0742 7.29163 14.4999 7.29163ZM15.5416 18.75C15.5416 18.1757 15.0742 17.7083 14.4999 17.7083C13.9257 17.7083 13.4583 18.1757 13.4583 18.75C13.4583 19.3242 13.9257 19.7916 14.4999 19.7916C15.0742 19.7916 15.5416 19.3242 15.5416 18.75Z" fill="#373737"/>
</svg>
