<svg width="25" height="25" viewBox="0 0 25 25" fill="none" xmlns="http://www.w3.org/2000/svg">
<path fill-rule="evenodd" clip-rule="evenodd" d="M20.3122 11.5844H8.73577L13.243 7.07711C13.6696 6.65058 13.6696 5.95611 13.243 5.52821C12.8151 5.10168 12.1261 5.10168 11.6996 5.52821L5.50946 11.7184C5.24834 11.9795 5.16769 12.3376 5.22647 12.6794C5.16769 13.0157 5.24834 13.378 5.50946 13.6405L11.6996 19.8238C12.1261 20.2517 12.8206 20.2517 13.2471 19.8238C13.675 19.3972 13.675 18.7082 13.2471 18.2803L8.73577 13.7744H20.3122C20.9165 13.7744 21.4072 13.2823 21.4072 12.6794C21.4072 12.0752 20.9165 11.5844 20.3122 11.5844Z" fill="#0973E7"/>
</svg>
