<svg width="18" height="18" viewBox="0 0 18 18" fill="none" xmlns="http://www.w3.org/2000/svg">
<path d="M17.4265 0H13.191C12.9005 0 12.665 0.235479 12.665 0.525936C12.665 0.816394 12.9005 1.05187 13.191 1.05187H16.9006V5.07767C16.9006 5.36813 17.1361 5.60361 17.4266 5.60361C17.717 5.60361 17.9525 5.36813 17.9525 5.07767V0.525936C17.9525 0.235479 17.717 0 17.4265 0Z" fill="#0973E7"/>
<path d="M0.529354 5.28745C0.819812 5.28745 1.05529 5.05197 1.05529 4.76151V1.05187H5.08109C5.37155 1.05187 5.60703 0.816394 5.60703 0.525936C5.60703 0.235479 5.37155 0 5.08109 0H0.529354C0.238897 0 0.00341797 0.235479 0.00341797 0.525936V4.76151C0.00341797 5.05197 0.238862 5.28745 0.529354 5.28745Z" fill="#0973E7"/>
<path d="M4.76148 16.9482H1.05187V12.9224C1.05187 12.632 0.816394 12.3965 0.525936 12.3965C0.235479 12.3965 0 12.632 0 12.9224V17.4742C0 17.7646 0.235479 18.0001 0.525936 18.0001H4.76151C5.05197 18.0001 5.28745 17.7646 5.28745 17.4742C5.28745 17.1837 5.05197 16.9482 4.76148 16.9482Z" fill="#0973E7"/>
<path d="M17.4234 12.7124C17.133 12.7124 16.8975 12.9479 16.8975 13.2383V16.948H12.8716C12.5812 16.948 12.3457 17.1835 12.3457 17.4739C12.3457 17.7644 12.5812 17.9999 12.8716 17.9999H17.4234C17.7138 17.9999 17.9493 17.7644 17.9493 17.4739V13.2383C17.9493 12.9479 17.7139 12.7124 17.4234 12.7124Z" fill="#0973E7"/>
<path d="M6.8785 10.4473H2.62799C2.33753 10.4473 2.10205 10.6827 2.10205 10.9732V15.3212C2.10205 15.6117 2.33753 15.8472 2.62799 15.8472H6.87854C7.16899 15.8472 7.40447 15.6117 7.40447 15.3212V10.9732C7.40444 10.6827 7.16899 10.4473 6.8785 10.4473ZM6.35256 14.7953H3.15392V11.4991H6.3526V14.7953H6.35256Z" fill="#0973E7"/>
<path d="M6.87836 8.44727H5.75055C5.46009 8.44727 5.22461 8.68274 5.22461 8.9732C5.22461 9.26366 5.46009 9.49914 5.75055 9.49914H6.87836C7.16882 9.49914 7.4043 9.26366 7.4043 8.9732C7.4043 8.68274 7.16886 8.44727 6.87836 8.44727Z" fill="#0973E7"/>
<path d="M2.62799 9.49914H3.74466C4.03511 9.49914 4.27059 9.26366 4.27059 8.9732C4.27059 8.68274 4.03511 8.44727 3.74466 8.44727H2.62799C2.33753 8.44727 2.10205 8.68274 2.10205 8.9732C2.10205 9.26366 2.33753 9.49914 2.62799 9.49914Z" fill="#0973E7"/>
<path d="M8.97808 7.49218C9.26854 7.49218 9.50402 7.2567 9.50402 6.96624V2.61822C9.50402 2.32776 9.26854 2.09229 8.97808 2.09229C8.68763 2.09229 8.45215 2.32776 8.45215 2.61822V6.96624C8.45215 7.2567 8.68763 7.49218 8.97808 7.49218Z" fill="#0973E7"/>
<path d="M15.862 15.3214V12.8086C15.862 12.5182 15.6265 12.2827 15.336 12.2827H12.7527V11.3689C12.7527 11.0785 12.5173 10.843 12.2268 10.843H9.50402V9.49914H13.4742V10.2328C13.4742 10.5233 13.7097 10.7588 14.0001 10.7588C14.2906 10.7588 14.5261 10.5233 14.5261 10.2328V9.49914H15.336C15.6265 9.49914 15.862 9.26366 15.862 8.9732C15.862 8.68274 15.6265 8.44727 15.336 8.44727H8.97808C8.68763 8.44727 8.45215 8.68274 8.45215 8.9732V15.2973C8.45215 15.5878 8.68763 15.8233 8.97808 15.8233C9.26854 15.8233 9.50402 15.5878 9.50402 15.2973V13.9716H10.3554C10.6459 13.9716 10.8814 13.7362 10.8814 13.4457C10.8814 13.1552 10.6459 12.9198 10.3554 12.9198H9.50402V11.8948H11.7009V12.8086C11.7009 13.0991 11.9363 13.3346 12.2268 13.3346H14.8101V14.7955H10.8511C10.5607 14.7955 10.3252 15.031 10.3252 15.3214C10.3252 15.6119 10.5607 15.8474 10.8511 15.8474H15.336C15.6265 15.8474 15.862 15.6119 15.862 15.3214Z" fill="#0973E7"/>
<path d="M6.8785 2.09229H2.62799C2.33753 2.09229 2.10205 2.32776 2.10205 2.61822V6.96624C2.10205 7.2567 2.33753 7.49218 2.62799 7.49218H6.87854C7.16899 7.49218 7.40447 7.2567 7.40447 6.96624V2.61822C7.40444 2.32776 7.16899 2.09229 6.8785 2.09229ZM6.35256 6.44031H3.15392V3.14416H6.3526V6.44031H6.35256Z" fill="#0973E7"/>
<path d="M11.0855 7.49218H15.336C15.6265 7.49218 15.862 7.2567 15.862 6.96624V2.61822C15.862 2.32776 15.6265 2.09229 15.336 2.09229H11.0855C10.795 2.09229 10.5596 2.32776 10.5596 2.61822V6.96624C10.5596 7.2567 10.795 7.49218 11.0855 7.49218ZM11.6114 3.14416H14.8101V6.44031H11.6114V3.14416Z" fill="#0973E7"/>
<path d="M4.34801 13.8471H5.1581C5.31227 13.8471 5.43726 13.7221 5.43726 13.5679V12.7264C5.43726 12.5723 5.31227 12.4473 5.1581 12.4473H4.34801C4.19385 12.4473 4.06885 12.5723 4.06885 12.7264V13.5679C4.06885 13.7221 4.19385 13.8471 4.34801 13.8471Z" fill="#0973E7"/>
<path d="M4.34801 5.49208H5.1581C5.31227 5.49208 5.43726 5.36708 5.43726 5.21292V4.37145C5.43726 4.21728 5.31227 4.09229 5.1581 4.09229H4.34801C4.19385 4.09229 4.06885 4.21728 4.06885 4.37145V5.21292C4.06885 5.36712 4.19385 5.49208 4.34801 5.49208Z" fill="#0973E7"/>
<path d="M13.6161 4.11475H12.806C12.6519 4.11475 12.5269 4.23974 12.5269 4.39391V5.23538C12.5269 5.38955 12.6519 5.51454 12.806 5.51454H13.6161C13.7703 5.51454 13.8953 5.38955 13.8953 5.23538V4.39391C13.8953 4.23974 13.7703 4.11475 13.6161 4.11475Z" fill="#0973E7"/>
</svg>
