<svg width="120" height="120" viewBox="0 0 120 120" fill="none" xmlns="http://www.w3.org/2000/svg">
<path d="M60 10C32.3627 10 10 32.365 10 60C10 87.6373 32.365 110 60 110C87.6373 110 110 87.635 110 60C110 32.3627 87.635 10 60 10ZM60 103.333C36.1061 103.333 16.6666 83.8941 16.6666 60C16.6666 36.1059 36.1061 16.6666 60 16.6666C83.8939 16.6666 103.333 36.1061 103.333 60C103.333 83.8939 83.8939 103.333 60 103.333Z" fill="#45B25D"/>
<path d="M86.4678 41.6262C85.1661 40.3245 83.0553 40.3245 81.7538 41.6262L52.0786 71.3014L38.2465 57.4696C36.9448 56.1678 34.834 56.1678 33.5325 57.4696C32.2307 58.7713 32.2307 60.8819 33.5325 62.1836L49.7213 78.3725C51.0229 79.6741 53.1342 79.6737 54.4354 78.3725L86.4678 46.3401C87.7696 45.0383 87.7696 42.928 86.4678 41.6262Z" fill="#45B25D"/>
</svg>
