<svg width="30" height="18" viewBox="0 0 30 18" fill="none" xmlns="http://www.w3.org/2000/svg">
<path fill-rule="evenodd" clip-rule="evenodd" d="M25.0277 4.10637C24.8474 4.10637 24.6676 4.11605 24.4894 4.13541C23.3745 1.69101 20.9172 0.0944824 18.1611 0.0944824C16.8529 0.0944824 15.5784 0.455912 14.4753 1.13968C13.5228 1.72996 12.7322 2.53805 12.1671 3.49501C9.65024 3.70165 7.45561 5.24063 6.41951 7.51185C6.24161 7.49249 6.06189 7.48281 5.88156 7.48281C5.88126 7.48281 5.88156 7.48281 5.88126 7.48281C4.56603 7.48281 3.32786 7.9928 2.39564 8.9187C1.46343 9.84489 0.949951 11.0744 0.949951 12.381C0.949951 15.0818 3.16227 17.2792 5.88126 17.2792H19.6144C21.799 17.2792 23.6566 15.8609 24.3023 13.9028H25.0277C27.7467 13.9028 29.959 11.7054 29.959 9.00453C29.959 6.30368 27.7467 4.10637 25.0277 4.10637ZM19.6144 15.591H5.88126C4.09947 15.591 2.6497 14.151 2.6497 12.381C2.6497 11.5252 2.9864 10.7198 3.59755 10.1125C4.20871 9.50545 5.0199 9.17103 5.88156 9.17103C6.17075 9.17103 6.45676 9.20885 6.73144 9.28328C7.16763 9.40138 7.62059 9.15963 7.76224 8.73284C8.47107 6.59563 10.4747 5.15944 12.7482 5.15944C15.0213 5.15944 17.025 6.59563 17.7338 8.73284C17.8754 9.15963 18.3287 9.40115 18.7645 9.28328C19.0393 9.20885 19.3252 9.17103 19.6144 9.17103C21.3965 9.17103 22.8463 10.611 22.8463 12.381C22.8463 14.151 21.3965 15.591 19.6144 15.591ZM25.0277 12.2146H24.5431C24.4543 9.59046 22.2776 7.48281 19.6144 7.48281C19.4341 7.48281 19.2544 7.49249 19.0764 7.51185C18.1558 5.49386 16.3203 4.05362 14.1572 3.61281C15.1376 2.46212 16.5853 1.783 18.1611 1.783C20.4342 1.783 22.4379 3.21919 23.1467 5.3564C23.2883 5.78318 23.7416 6.02471 24.1775 5.90684C24.4522 5.83241 24.7382 5.79459 25.0277 5.79459C26.8095 5.79459 28.2592 7.2346 28.2592 9.00453C28.2592 10.7745 26.8095 12.2146 25.0277 12.2146Z" fill="#0A7DD6"/>
</svg>
