<svg width="40" height="39" viewBox="0 0 40 39" fill="none" xmlns="http://www.w3.org/2000/svg">
<path fill-rule="evenodd" clip-rule="evenodd" d="M15.691 9.03909C16.243 9.03909 16.6909 8.5958 16.6909 8.04862V6.0542C16.6909 5.5071 16.243 5.06372 15.691 5.06372C15.1387 5.06372 14.6912 5.5071 14.6912 6.0542V8.04862C14.6912 8.5958 15.1387 9.03909 15.691 9.03909ZM6.62012 12.6649L4.8763 11.6676C4.39823 11.3939 3.7865 11.5562 3.51055 12.0301C3.2345 12.5036 3.39838 13.1096 3.87645 13.3831L5.62027 14.3804C6.09727 14.6531 6.70935 14.4925 6.98602 14.018C7.26207 13.544 7.09819 12.9384 6.62012 12.6649ZM3.87645 24.6098L5.62027 23.6125C6.09869 23.3387 6.71007 23.5014 6.98602 23.9749C7.26207 24.4489 7.09819 25.0545 6.62012 25.328L4.8763 26.3253C4.40063 26.5976 3.78828 26.4388 3.51055 25.9628C3.2345 25.4889 3.39838 24.8833 3.87645 24.6098ZM25.7613 14.3804L27.5052 13.3831C27.9832 13.1096 28.1471 12.5036 27.8711 12.0301C27.5951 11.5562 26.9837 11.3939 26.5053 11.6676L24.7615 12.6649C24.2834 12.9384 24.1196 13.544 24.3956 14.018C24.673 14.4939 25.2854 14.6525 25.7613 14.3804ZM22.9909 15.7612C26.0453 15.7482 28.8217 17.6009 29.9663 20.4024C33.9959 20.0897 37.5047 23.2482 37.5047 27.3164C37.5047 30.8787 34.7926 33.8147 31.298 34.2055C31.2798 34.211 31.2667 34.216 31.2533 34.2204C31.0653 34.2826 30.8409 34.2347 16.1531 34.2497C11.7179 34.2497 9.02252 29.3854 11.393 25.6753C9.16979 24.2663 7.69223 21.7993 7.69223 18.9964C7.69223 14.6273 11.2802 11.0726 15.6907 11.0726C18.9385 11.0726 21.7394 13.0003 22.9909 15.7612ZM15.691 13.0536C12.3828 13.0536 9.69193 15.7197 9.69193 18.9964C9.69193 21.2274 10.9397 23.1744 12.7796 24.1903C13.5861 23.5894 14.5224 23.2218 15.5157 23.1142C15.5511 19.8356 17.7449 16.9784 20.9041 16.0612C19.8706 14.2666 17.9215 13.0536 15.691 13.0536ZM22.1265 32.2684C26.4758 32.2698 30.6797 32.2711 30.9199 32.2516C33.4911 32.0436 35.505 29.8755 35.505 27.3164C35.505 24.1882 32.6041 21.8283 29.4875 22.4669C28.9703 22.5725 28.4589 22.2616 28.3203 21.7567C27.6718 19.3926 25.4896 17.7418 23.0135 17.7418C19.6668 17.7418 17.105 20.6762 17.5685 23.9533C17.6574 24.5823 17.1321 25.1346 16.4877 25.0772C15.4195 24.9809 14.4391 25.3352 13.7028 26.0013C11.2497 28.2203 12.8563 32.2688 16.1531 32.2688C17.8914 32.2671 20.0259 32.2678 22.1265 32.2684Z" fill="#7E7F8A"/>
</svg>
