<svg width="27" height="17" viewBox="0 0 27 17" fill="none" xmlns="http://www.w3.org/2000/svg">
<path d="M1.91175 0C0.868978 0 0 0.813138 0 1.82143V15.1786C0 16.1869 0.868978 17 1.91175 17H25.0882C26.131 17 27 16.1869 27 15.1786V1.82143C27 0.813138 26.131 0 25.0882 0H1.91175ZM2.23692 1.21429H24.7631L14.0494 10.4732C13.7803 10.7063 13.2197 10.7063 12.9506 10.4732L2.23692 1.21429ZM1.25581 1.98948L9.09344 8.76562L1.25581 15.043V1.98948ZM25.7442 1.98948V15.043L17.9066 8.76562L25.7442 1.98948ZM10.0465 9.5896L12.1152 11.3731C12.9001 12.0507 14.0943 12.0507 14.8848 11.3731L16.9535 9.5896L24.6958 15.7857H2.30419L10.0465 9.5896Z" fill="#53585C"/>
</svg>
