<svg width="12" height="15" viewBox="0 0 12 15" fill="none" xmlns="http://www.w3.org/2000/svg">
<path fill-rule="evenodd" clip-rule="evenodd" d="M8.1523 12.8075C8.39029 12.8075 8.58359 12.6134 8.58359 12.3722V7.12156C8.58359 6.8804 8.39029 6.68354 8.1523 6.68354C7.91485 6.68354 7.7237 6.8804 7.7237 7.12156V12.3722C7.7237 12.6134 7.91485 12.8075 8.1523 12.8075ZM10.7373 2.30889H8.1523V1.4356C8.1523 0.950555 7.76786 0.55957 7.29242 0.55957H4.70739C4.23195 0.55957 3.84481 0.950555 3.84481 1.4356V2.30889H1.26248C0.784884 2.30889 0.399902 2.69987 0.399902 3.18491V4.0582C0.399902 4.54106 0.784884 4.93423 1.26248 4.93423V12.8075C1.26248 13.7754 2.0319 14.5596 2.98493 14.5596H9.01487C9.96575 14.5596 10.7373 13.7754 10.7373 12.8075V4.93423C11.2149 4.93423 11.5999 4.54106 11.5999 4.0582V3.18491C11.5999 2.69987 11.2149 2.30889 10.7373 2.30889ZM4.70739 1.87087C4.70739 1.62972 4.90069 1.4356 5.13867 1.4356H6.86113C7.09858 1.4356 7.29242 1.62972 7.29242 1.87087V2.30889H4.70739V1.87087ZM9.87745 12.8075C9.87745 13.2904 9.49031 13.6835 9.01487 13.6835H2.98493C2.50734 13.6835 2.12236 13.2904 2.12236 12.8075V4.93423H9.87745V12.8075ZM10.306 4.0582H1.69107C1.45362 4.0582 1.26248 3.86408 1.26248 3.62292C1.26248 3.38122 1.45362 3.18491 1.69107 3.18491H10.306C10.544 3.18491 10.7373 3.38122 10.7373 3.62292C10.7373 3.86408 10.544 4.0582 10.306 4.0582ZM3.84481 12.8075C4.0828 12.8075 4.2761 12.6134 4.2761 12.3722V7.12156C4.2761 6.8804 4.0828 6.68354 3.84481 6.68354C3.60736 6.68354 3.41622 6.8804 3.41622 7.12156V12.3722C3.41622 12.6134 3.60736 12.8075 3.84481 12.8075ZM5.99856 12.8075C6.23655 12.8075 6.42984 12.6134 6.42984 12.3722V7.12156C6.42984 6.8804 6.23655 6.68354 5.99856 6.68354C5.76111 6.68354 5.56996 6.8804 5.56996 7.12156V12.3722C5.56996 12.6134 5.76111 12.8075 5.99856 12.8075Z" fill="#53585C"/>
</svg>
