<svg width="24" height="24" viewBox="0 0 24 24" fill="none" xmlns="http://www.w3.org/2000/svg">
<path fill-rule="evenodd" clip-rule="evenodd" d="M2.0532 9H0.704323C0.316135 9 0.00119792 8.68531 0.00119792 8.29688C0.00119792 7.90844 0.316135 7.59375 0.704323 7.59375H2.02151C2.53589 5.94875 4.67776 5.49075 5.80907 6.83181L9.79932 5.26269C9.69876 3.1575 12.3296 2.13694 13.6819 3.73563L17.2996 2.313C17.2371 1.051 18.2463 0 19.4998 0C20.4688 0 21.2929 0.629125 21.5871 1.5H23.2956C23.6838 1.5 23.9988 1.81469 23.9988 2.20312C23.9988 2.59156 23.6838 2.90625 23.2956 2.90625H21.5871C21.0398 4.52663 18.927 4.93919 17.8154 3.62131L14.1999 5.043C14.3066 7.135 11.6733 8.18994 10.3133 6.57156L6.32495 8.14013C6.38745 9.40188 5.3782 10.4531 4.12476 10.4531C3.17307 10.4531 2.36082 9.84669 2.0532 9ZM20.2969 2.20312C20.2969 1.76369 19.9394 1.40625 19.5 1.40625C19.0606 1.40625 18.7031 1.76369 18.7031 2.20312C18.7031 2.64256 19.0606 3 19.5 3C19.9394 3 20.2969 2.64256 20.2969 2.20312ZM12.7969 5.15625C12.7969 4.71681 12.4394 4.35938 12 4.35938C11.5606 4.35938 11.2031 4.71681 11.2031 5.15625C11.2031 5.59569 11.5606 5.95312 12 5.95312C12.4394 5.95312 12.7969 5.59569 12.7969 5.15625ZM4.92188 8.25C4.92188 7.81056 4.56444 7.45312 4.125 7.45312C3.68556 7.45312 3.32812 7.81056 3.32812 8.25C3.32812 8.68944 3.68556 9.04688 4.125 9.04688C4.56444 9.04688 4.92188 8.68944 4.92188 8.25ZM22.4531 22.5938H23.2969C23.6853 22.5938 24 22.9084 24 23.2969C24 23.6853 23.6853 24 23.2969 24H0.703125C0.314687 24 0 23.6853 0 23.2969C0 22.9084 0.314687 22.5938 0.703125 22.5938H1.54688V15.9365C1.54688 15.0584 2.2615 14.3438 3.13963 14.3438H5.86038C6.7385 14.3438 7.45313 15.0584 7.45313 15.9365V22.5938H9.04688V12.8726C9.04688 12.0296 9.73269 11.3438 10.5757 11.3438H13.4243C14.2673 11.3438 14.9531 12.0296 14.9531 12.8726V22.5938H16.5469V10.125C16.5469 9.11694 17.3669 8.29688 18.375 8.29688H20.625C21.6331 8.29688 22.4531 9.11694 22.4531 10.125V22.5938ZM2.95312 15.9365V22.5938H6.04688V15.9365C6.04688 15.8337 5.96313 15.75 5.86037 15.75H3.13963C3.03688 15.75 2.95312 15.8337 2.95312 15.9365ZM10.4531 12.8726V22.5938H13.5469V12.8726C13.5469 12.8049 13.4919 12.75 13.4243 12.75H10.5757C10.5081 12.75 10.4531 12.8049 10.4531 12.8726ZM17.9531 10.125V22.5938H21.0469V10.125C21.0469 9.89231 20.8577 9.70312 20.625 9.70312H18.375C18.1423 9.70312 17.9531 9.89231 17.9531 10.125Z" fill="#53585C"/>
</svg>
