<svg width="12" height="16" viewBox="0 0 12 16" fill="none" xmlns="http://www.w3.org/2000/svg">
<path fill-rule="evenodd" clip-rule="evenodd" d="M2.92473 0.516129C2.92473 0.231079 2.69365 0 2.4086 0C2.12355 0 1.89247 0.231079 1.89247 0.516129V2.23656H1.37634C0.61621 2.23656 0 2.85277 0 3.6129V14.6237C0 15.3838 0.61621 16 1.37634 16H10.4344C11.1945 16 11.8108 15.3838 11.8108 14.6237V3.6129C11.8108 2.85277 11.1945 2.23656 10.4344 2.23656H2.92473V0.516129ZM10.4344 3.26882H1.37634C1.18631 3.26882 1.03226 3.42287 1.03226 3.6129V14.6237C1.03226 14.8137 1.18631 14.9677 1.37634 14.9677H10.4344C10.6244 14.9677 10.7785 14.8137 10.7785 14.6237V3.6129C10.7785 3.42287 10.6244 3.26882 10.4344 3.26882ZM8.36994 5.33333H3.44091C3.25087 5.33333 3.09682 5.48739 3.09682 5.67742V8.43011C3.09682 8.62014 3.25087 8.77419 3.44091 8.77419H8.36994C8.55997 8.77419 8.71402 8.62014 8.71402 8.43011V5.67742C8.71402 5.48739 8.55997 5.33333 8.36994 5.33333ZM3.44091 4.30108C2.68077 4.30108 2.06456 4.91729 2.06456 5.67742V8.43011C2.06456 9.19024 2.68077 9.80645 3.44091 9.80645H8.36994C9.13007 9.80645 9.74628 9.19024 9.74628 8.43011V5.67742C9.74628 4.91729 9.13007 4.30108 8.36994 4.30108H3.44091Z" fill="#5EA8FA"/>
</svg>
