<svg width="48" height="48" viewBox="0 0 48 48" fill="none" xmlns="http://www.w3.org/2000/svg">
<path d="M8 18.9422C8 10.7033 15.103 4 23.8333 4C32.5637 4 39.6667 10.7033 39.6667 18.9422C39.6594 24.3288 36.5882 29.2967 31.6228 31.9533C30.986 32.293 30.1779 32.0819 29.8175 31.4812C29.457 30.8803 29.6809 30.1177 30.3177 29.7776C34.453 27.5653 37.0112 23.4283 37.0176 18.9422C37.0176 12.0815 31.1032 6.5 23.8333 6.5C16.5634 6.5 10.6491 12.0815 10.6491 18.9422C10.6555 23.4279 13.2136 27.5653 17.349 29.7772C17.9858 30.1174 18.2096 30.8803 17.8491 31.4808C17.4891 32.0819 16.6807 32.293 16.0439 31.9533C11.0785 29.2967 8.00729 24.3288 8 18.9422ZM28.552 24.2632C27.9886 24.7035 27.9101 25.4913 28.3765 26.0231C28.8436 26.5549 29.6782 26.629 30.2418 26.1887C33.5078 23.6386 34.7281 19.4289 33.2918 15.665C31.8561 11.9012 28.0726 9.39146 23.8333 9.39146C19.5941 9.39146 15.8105 11.9012 14.3748 15.665C12.9386 19.4289 14.1588 23.6386 17.4248 26.1887C17.9884 26.629 18.8236 26.5549 19.2901 26.0231C19.7566 25.4913 19.6781 24.7035 19.1146 24.2632C16.7087 22.3854 15.8098 19.2848 16.867 16.5126C17.9246 13.74 20.7113 11.8919 23.8333 11.8919C26.9554 11.8919 29.742 13.74 30.7997 16.5126C31.8569 19.2848 30.958 22.3854 28.552 24.2632ZM39.6667 42.75C39.6667 43.4405 39.0734 44 38.3421 44H9.32455C8.59329 44 8 43.4405 8 42.75C8 42.0595 8.59329 41.5 9.32455 41.5H17.2649L22.464 23.067C20.3055 22.4285 18.9637 20.399 19.306 18.2887C19.6484 16.1785 21.5714 14.6201 23.8333 14.6201C26.0952 14.6201 28.0187 16.1785 28.3606 18.2887C28.7029 20.399 27.3616 22.4285 25.2031 23.067L30.4018 41.5H38.3421C39.0734 41.5 39.6667 42.0595 39.6667 42.75ZM21.9026 18.9422C21.9026 19.6792 22.373 20.3435 23.0943 20.6255C23.8161 20.9079 24.6465 20.7517 25.1988 20.2308C25.7507 19.7096 25.9163 18.9259 25.6175 18.2448C25.3183 17.5641 24.6142 17.1201 23.8333 17.1201C22.7675 17.1209 21.9035 17.9364 21.9026 18.9422Z" fill="#0973E7"/>
</svg>
