<svg width="18" height="24" viewBox="0 0 18 24" fill="none" xmlns="http://www.w3.org/2000/svg">
<path fill-rule="evenodd" clip-rule="evenodd" d="M7.83582 22.5943C8.25765 22.5943 8.60082 22.2511 8.60082 21.8293V2.17073C8.60082 1.74891 8.25765 1.40573 7.83582 1.40573H2.76793C2.3461 1.40573 2.00293 1.74891 2.00293 2.17073V4.69364H5.30186C5.69003 4.69364 6.0047 5.00836 6.0047 5.39653C6.0047 5.78466 5.69003 6.09937 5.30186 6.09937H2.00293V7.3845H3.30095C3.68912 7.3845 4.00379 7.69917 4.00379 8.08734C4.00379 8.47552 3.68912 8.79023 3.30095 8.79023H2.00293V10.0823H5.30186C5.69003 10.0823 6.0047 10.397 6.0047 10.7851C6.0047 11.1733 5.69003 11.488 5.30186 11.488H2.00293V12.7731H3.30095C3.68912 12.7731 4.00379 13.0878 4.00379 13.476C4.00379 13.8642 3.68912 14.1788 3.30095 14.1788H2.00293V15.4736H5.3161C5.70428 15.4736 6.01895 15.7883 6.01895 16.1765C6.01895 16.5647 5.70428 16.8794 5.3161 16.8794H2.00293V18.1645H3.3152C3.70332 18.1645 4.01804 18.4792 4.01804 18.8673C4.01804 19.2555 3.70332 19.5702 3.3152 19.5702H2.00293V21.8293C2.00293 22.2511 2.3461 22.5943 2.76793 22.5943H7.83582ZM2.76793 0H7.83582C9.03278 0 10.0066 0.973781 10.0066 2.17073V21.8293C10.0066 23.0262 9.03278 24 7.83582 24H2.76793C1.57098 24 0.597198 23.0262 0.597198 21.8293V2.17073C0.597198 0.973781 1.57098 0 2.76793 0ZM14.2888 21.7331C14.2888 22.1821 14.6541 22.5474 15.1031 22.5474C15.5522 22.5474 15.9175 22.1821 15.9175 21.7331V20.6324H14.2888V21.7331ZM15.702 3.29245L15.1032 2.18283L14.5043 3.29245H15.702ZM15.9175 19.2267H14.2888V4.69823H15.9175V19.2267ZM15.7651 0.449344L17.2346 3.17264C17.2926 3.28125 17.3232 3.40373 17.3232 3.52678V21.7331C17.3232 22.9572 16.3273 23.9531 15.1031 23.9531C13.8789 23.9531 12.883 22.9572 12.883 21.7331V3.52683C12.883 3.40252 12.9143 3.27895 12.9733 3.16959L14.4413 0.449437C14.5722 0.206156 14.8258 0.0546563 15.1028 0.0545156H15.1031C15.3799 0.0545156 15.6335 0.205734 15.7651 0.449344Z" fill="#53585C"/>
</svg>
