<svg width="40" height="39" viewBox="0 0 40 39" fill="none" xmlns="http://www.w3.org/2000/svg">
<path fill-rule="evenodd" clip-rule="evenodd" d="M28.7034 22.5472H12.2058C11.0034 22.5472 9.86657 22.084 9.00423 21.243C8.13509 20.3955 7.65649 19.2716 7.65649 18.0784C7.65649 16.8852 8.13509 15.7612 9.00423 14.9137C9.68486 14.2499 10.5365 13.8216 11.4565 13.6703L11.4565 13.6701C11.4562 13.65 11.4559 13.6299 11.4559 13.6095C11.4559 10.3241 14.1472 7.65112 17.455 7.65112C18.6817 7.65112 19.8607 8.01783 20.8642 8.71192C21.5706 9.20045 22.1572 9.82628 22.5933 10.5512C23.2972 10.1175 24.109 9.88553 24.9539 9.88553C27.1979 9.88553 29.0635 11.5254 29.3993 13.662C30.3399 13.8051 31.2113 14.237 31.905 14.9137C32.7741 15.7612 33.2527 16.8852 33.2527 18.0784C33.2527 19.2716 32.7741 20.3955 31.905 21.243C31.0426 22.084 29.9058 22.5472 28.7034 22.5472ZM12.2058 15.0992C10.5243 15.0992 9.15627 16.4357 9.15627 18.0784C9.15627 19.721 10.5243 21.0576 12.2058 21.0576H28.7034C30.3849 21.0576 31.7529 19.721 31.7529 18.0784C31.7529 16.4357 30.3849 15.0992 28.7034 15.0992H27.9535V14.3544C27.9535 12.7117 26.6078 11.3751 24.9539 11.3751C24.1658 11.3751 23.42 11.679 22.8545 12.2309L22.0474 13.0181L21.6315 11.973C20.9473 10.2525 19.3079 9.14073 17.455 9.14073C14.9741 9.14073 12.9557 11.1455 12.9557 13.6095C12.9557 13.7853 12.9835 13.9742 13.0128 14.1739L13.013 14.1751L13.1473 15.0992H12.2058ZM15.9553 27.016C13.6108 27.016 11.3154 26.265 11.2187 26.2329L10.5074 25.9976L10.9815 24.5843L11.6926 24.8196C11.714 24.8269 13.8602 25.5264 15.9553 25.5264C18.0503 25.5264 20.1966 24.8269 20.2179 24.8196C20.314 24.7878 22.6095 24.0368 24.9539 24.0368C27.2984 24.0368 29.5938 24.7878 29.6905 24.8199L30.4018 25.0552L29.9277 26.4685L29.216 26.2329C29.1952 26.2259 27.049 25.5264 24.9539 25.5264C22.8589 25.5264 20.7126 26.2259 20.6913 26.2332C20.5952 26.265 18.2997 27.016 15.9553 27.016ZM11.2187 29.2122C11.3154 29.2442 13.6108 29.9952 15.9553 29.9952C18.2997 29.9952 20.5952 29.2442 20.6913 29.2124C20.7126 29.2051 22.8589 28.5056 24.9539 28.5056C27.049 28.5056 29.1952 29.2051 29.216 29.2122L29.9277 29.4477L30.4018 28.0344L29.6905 27.7991C29.5938 27.767 27.2984 27.016 24.9539 27.016C22.6095 27.016 20.314 27.767 20.2179 27.7988C20.1966 27.8061 18.0503 28.5056 15.9553 28.5056C13.8602 28.5056 11.714 27.8061 11.6926 27.7988L10.9815 27.5635L10.5074 28.9768L11.2187 29.2122Z" fill="#414042"/>
</svg>
