<svg width="25" height="25" viewBox="0 0 25 25" fill="none" xmlns="http://www.w3.org/2000/svg">
<path fill-rule="evenodd" clip-rule="evenodd" d="M4.84502 13.7686L16.4215 13.7686L11.9142 18.2759C11.4877 18.7024 11.4877 19.3969 11.9142 19.8248C12.3421 20.2513 13.0311 20.2513 13.4576 19.8248L19.6478 13.6346C19.9089 13.3735 19.9895 13.0153 19.9308 12.6736C19.9895 12.3373 19.9089 11.975 19.6478 11.7125L13.4576 5.52919C13.0311 5.10129 12.3366 5.10129 11.9101 5.52919C11.4822 5.95572 11.4822 6.64473 11.9101 7.07263L16.4215 11.5785L4.84502 11.5785C4.24077 11.5785 3.74999 12.0707 3.74999 12.6736C3.74999 13.2778 4.24077 13.7686 4.84502 13.7686Z" fill="#0973E7"/>
</svg>
