<svg width="30" height="28" viewBox="0 0 30 28" fill="none" xmlns="http://www.w3.org/2000/svg">
<path d="M14.9639 26.2378C13.8152 26.2378 12.6766 26.0983 11.5794 25.8226C6.85114 24.6355 3.14895 20.9798 2.14767 16.5089C1.12719 11.954 3.0106 7.16587 6.94657 4.31043C9.22181 2.65956 12.0914 1.75 15.027 1.75C17.0594 1.75 19.0776 2.19111 20.8641 3.02479C25.2757 5.08473 28.1261 9.38839 28.1261 13.9894C28.1261 17.7436 26.228 21.362 23.049 23.6684C20.7656 25.3254 17.8941 26.2378 14.9639 26.2378ZM15.0276 3.63509C12.5387 3.63509 10.109 4.40327 8.18669 5.79871C4.85563 8.21539 3.26105 12.2679 4.12499 16.1229C4.97227 19.9048 8.10439 22.9978 12.1045 24.0021C13.0305 24.2344 13.9929 24.3527 14.9639 24.3527H14.9644C17.4477 24.3527 19.8785 23.5812 21.8098 22.1802C24.5006 20.2281 26.1068 17.1663 26.1068 13.9894C26.1068 10.0962 23.6948 6.45425 19.9613 4.71101C18.4535 4.0074 16.7479 3.63509 15.0276 3.63509Z" fill="black"/>
<path d="M14.9978 20.0672C14.4403 20.0672 13.9879 19.6449 13.9879 19.1246V11.6809C13.9879 11.1606 14.4403 10.7383 14.9978 10.7383C15.5552 10.7383 16.0077 11.1606 16.0077 11.6809V19.1246C16.0077 19.6454 15.5557 20.0672 14.9978 20.0672Z" fill="black"/>
<path d="M14.9978 9.79661C14.7302 9.79661 14.4727 9.69765 14.2858 9.51856C14.094 9.34419 13.9879 9.10384 13.9879 8.85407C13.9879 8.60429 14.094 8.36394 14.2858 8.18957C14.6595 7.83612 15.3361 7.83612 15.7097 8.18486C15.9016 8.36394 16.0077 8.60429 16.0077 8.85407C16.0077 9.09913 15.9016 9.34419 15.7097 9.51856C15.5229 9.69765 15.2654 9.79661 14.9978 9.79661Z" fill="black"/>
</svg>
