<svg width="18" height="24" viewBox="0 0 18 24" fill="none" xmlns="http://www.w3.org/2000/svg">
<path fill-rule="evenodd" clip-rule="evenodd" d="M9.53025 0.21975C9.23731 -0.07325 8.76269 -0.07325 8.46975 0.21975C8.124 0.565437 0 8.76125 0 15C0 19.9629 4.03713 24 9 24C13.9629 24 18 19.9629 18 15C18 8.76125 9.876 0.565437 9.53025 0.21975ZM9.75 6H12.4656C13.156 6.93506 13.843 7.95019 14.4534 9H9.75V6ZM9.75 4.5V2.65869C10.1999 3.16406 10.7356 3.78981 11.3084 4.5H9.75ZM9.75 10.5H15.2519C15.7405 11.511 16.1159 12.5242 16.3206 13.5H9.75V10.5ZM1.5 15C1.5 10.7774 5.98463 5.20531 8.25 2.65944V22.4243C4.47069 22.0415 1.5 18.8784 1.5 15ZM9.75 22.4241V19.5H14.9617C14.7436 19.7878 14.5061 20.0588 14.2505 20.3111C13.0669 21.4792 11.4998 22.2471 9.75 22.4241ZM15.8643 18H9.75V15H16.5C16.5 16.0676 16.2683 17.0796 15.8643 18Z" fill="#53585C"/>
</svg>
