<svg width="20" height="20" viewBox="0 0 20 20" fill="none" xmlns="http://www.w3.org/2000/svg">
<path d="M15.8337 11.0198C15.8337 9.31643 14.9688 7.2709 13.2629 4.94005C12.0163 3.23675 10.788 2.02968 10.7363 1.97913L10.4169 1.66669L10.0974 1.97913C10.0458 2.02968 8.81742 3.23675 7.57086 4.94005C5.86497 7.2709 5 9.31643 5 11.0198C5 13.9759 7.18064 16.4094 9.94951 16.6579V18.3334H10.8842V16.6579C13.6531 16.4094 15.8337 13.9759 15.8337 11.0198ZM9.94951 12.2641L6.48831 8.64789C6.79534 7.91509 7.19899 7.19635 7.6176 6.545L9.94951 8.98133V12.2641ZM10.8842 8.98139L13.2162 6.54503C13.6348 7.19635 14.0384 7.91509 14.3455 8.64792L10.8842 12.2641V8.98139ZM12.5287 5.54459C12.5747 5.60751 12.621 5.6717 12.6676 5.73697L10.8842 7.60027V3.52562C11.3386 4.03081 11.9359 4.73363 12.5287 5.54459ZM9.94951 3.52562V7.60027L8.1661 5.73701C8.21271 5.67174 8.2591 5.60751 8.30509 5.54462C8.89784 4.73363 9.4952 4.03081 9.94951 3.52562ZM5.93473 11.0198C5.93473 10.5794 6.0083 10.1216 6.13483 9.65966L9.94951 13.6452V15.6772C7.69686 15.4322 5.93473 13.437 5.93473 11.0198ZM10.8842 15.6772V13.6452L14.6989 9.6597C14.8255 10.1216 14.899 10.5794 14.899 11.0198C14.899 13.437 13.1369 15.4322 10.8842 15.6772Z" fill="black"/>
</svg>
