<svg width="18" height="33" viewBox="0 0 18 33" fill="none" xmlns="http://www.w3.org/2000/svg">
<g clip-path="url(#clip0_577_45302)">
<path d="M9.00005 30.3622L8.40487 29.1926C8.1213 28.6353 1.44656 15.4862 0.420731 10.3593C-0.0616454 7.9474 0.558464 5.50681 2.16763 3.48692C3.88088 1.33616 6.49843 0 9.00005 0C11.5017 0 14.1199 1.33616 15.8331 3.4882C17.4416 5.50745 18.0618 7.94804 17.5794 10.3599C16.5535 15.4875 9.87942 28.6366 9.59523 29.1932L9.00068 30.3622H9.00005ZM9.00005 1.37511C6.8923 1.37511 4.673 2.51784 3.2078 4.35642C1.85851 6.05009 1.33563 8.08402 1.73574 10.0835C2.54967 14.152 7.30924 23.9616 9.00005 27.3687C10.6909 23.9616 15.4504 14.152 16.2644 10.0835C16.6639 8.08402 16.1422 6.05009 14.7929 4.35706C13.3277 2.51784 11.1084 1.37511 9.00005 1.37511Z" fill="black"/>
<path d="M18 33H0L2.32276 25.9067L3.59601 26.3434L1.86656 31.6249H16.1334L14.404 26.3434L15.6766 25.9067L18 33Z" fill="black"/>
<path d="M8.99995 13.7874C6.75946 13.7874 4.93652 11.9201 4.93652 9.62509C4.93652 7.33005 6.75946 5.46338 8.99995 5.46338C11.2404 5.46338 13.0628 7.33069 13.0628 9.62509C13.0628 11.9195 11.2398 13.7874 8.99995 13.7874ZM8.99995 6.83785C7.49985 6.83785 6.27895 8.08783 6.27895 9.62509C6.27895 11.1623 7.49923 12.4123 8.99995 12.4123C10.5007 12.4123 11.7203 11.1617 11.7203 9.62509C11.7203 8.08847 10.5001 6.83785 8.99995 6.83785Z" fill="black"/>
</g>
<defs>
<clipPath id="clip0_577_45302">
<rect width="18" height="33" fill="white"/>
</clipPath>
</defs>
</svg>
