<svg width="44" height="44" viewBox="0 0 44 44" fill="none" xmlns="http://www.w3.org/2000/svg">
<path fill-rule="evenodd" clip-rule="evenodd" d="M13.2469 19.3601H12.0599C11.7183 19.3601 11.4412 19.0831 11.4412 18.7413C11.4412 18.3995 11.7183 18.1226 12.0599 18.1226H13.219C13.6717 16.675 15.5565 16.2719 16.5521 17.4521L20.0635 16.0712C19.975 14.2187 22.2901 13.3206 23.4802 14.7274L26.6637 13.4755C26.6087 12.3649 27.4969 11.4401 28.5999 11.4401C29.4526 11.4401 30.1779 11.9937 30.4368 12.7601H31.9403C32.2819 12.7601 32.559 13.037 32.559 13.3788C32.559 13.7206 32.2819 13.9976 31.9403 13.9976H30.4368C29.9552 15.4235 28.0959 15.7865 27.1177 14.6268L23.9361 15.8779C24.0299 17.7189 21.7126 18.6472 20.5158 17.223L17.0061 18.6034C17.0611 19.7137 16.1729 20.6388 15.0699 20.6388C14.2324 20.6388 13.5176 20.1051 13.2469 19.3601ZM29.3013 13.3788C29.3013 12.9921 28.9868 12.6775 28.6001 12.6775C28.2134 12.6775 27.8988 12.9921 27.8988 13.3788C27.8988 13.7655 28.2134 14.08 28.6001 14.08C28.9868 14.08 29.3013 13.7655 29.3013 13.3788ZM22.7013 15.9775C22.7013 15.5908 22.3868 15.2763 22.0001 15.2763C21.6134 15.2763 21.2988 15.5908 21.2988 15.9775C21.2988 16.3642 21.6134 16.6788 22.0001 16.6788C22.3868 16.6788 22.7013 16.3642 22.7013 15.9775ZM15.7713 18.7001C15.7713 18.3134 15.4567 17.9988 15.07 17.9988C14.6833 17.9988 14.3688 18.3134 14.3688 18.7001C14.3688 19.0868 14.6833 19.4013 15.07 19.4013C15.4567 19.4013 15.7713 19.0868 15.7713 18.7001ZM31.1988 31.3226H31.9413C32.2831 31.3226 32.5601 31.5995 32.5601 31.9413C32.5601 32.2831 32.2831 32.5601 31.9413 32.5601H12.0588C11.717 32.5601 11.4401 32.2831 11.4401 31.9413C11.4401 31.5995 11.717 31.3226 12.0588 31.3226H12.8013V25.4642C12.8013 24.6914 13.4302 24.0626 14.2029 24.0626H16.5972C17.3699 24.0626 17.9988 24.6914 17.9988 25.4642V31.3226H19.4013V22.7679C19.4013 22.0261 20.0048 21.4226 20.7467 21.4226H23.2535C23.9953 21.4226 24.5988 22.0261 24.5988 22.7679V31.3226H26.0013V20.3501C26.0013 19.463 26.723 18.7413 27.6101 18.7413H29.5901C30.4772 18.7413 31.1988 19.463 31.1988 20.3501V31.3226ZM14.039 25.4642V31.3226H16.7615V25.4642C16.7615 25.3738 16.6878 25.3001 16.5974 25.3001H14.2031C14.1127 25.3001 14.039 25.3738 14.039 25.4642ZM20.639 22.7679V31.3225H23.3615V22.7679C23.3615 22.7084 23.3131 22.66 23.2536 22.66H20.7468C20.6873 22.66 20.639 22.7084 20.639 22.7679ZM27.239 20.35V31.3225H29.9615V20.35C29.9615 20.1453 29.795 19.9788 29.5902 19.9788H27.6102C27.4055 19.9788 27.239 20.1453 27.239 20.35Z" fill="black"/>
</svg>
