<svg width="20" height="20" viewBox="0 0 20 20" xmlns="http://www.w3.org/2000/svg">
    <path
            d="M17.852 7.11c1.133 0 2.064.881 2.143 1.995l.005.153v3.906a2.151 2.151 0 0 1-1.995 2.143l-.153.005h-5.313v1.362l1.585.634c.195.077.33.252.361.455l.007.089v1.562a.586.586 0 0 1-.49.578l-.096.008H6.094a.586.586 0 0 1-.579-.49l-.007-.096v-1.562c0-.21.112-.401.288-.505l.08-.04 1.585-.633v-1.362H2.148a2.151 2.151 0 0 1-2.143-1.995L0 13.164V9.258c0-1.133.882-2.064 1.995-2.143l.153-.006h15.704zm-6.485 8.202H8.633v1.758c0 .21-.112.401-.289.505l-.08.04-1.584.633v.58h6.64v-.58l-1.585-.634a.586.586 0 0 1-.361-.455l-.007-.089v-1.758zm6.485-7.03H2.148c-.5 0-.913.377-.97.862l-.006.114v3.906c0 .5.378.914.863.97l.113.007h15.704c.5 0 .913-.378.97-.863l.006-.114V9.258a.978.978 0 0 0-.976-.977zm-.82 3.515a.586.586 0 0 1 .094 1.164l-.095.008H15.47a.586.586 0 0 1-.095-1.164l.095-.008h1.562zM4.14 9.453c.969 0 1.757.789 1.757 1.758a1.76 1.76 0 0 1-1.757 1.758 1.76 1.76 0 0 1-1.758-1.758c0-.97.788-1.758 1.758-1.758zm5.859 0c.97 0 1.758.789 1.758 1.758A1.76 1.76 0 0 1 10 12.969a1.76 1.76 0 0 1-1.758-1.758c0-.97.789-1.758 1.758-1.758zm-5.86 1.172a.587.587 0 1 0 .002 1.173.587.587 0 0 0-.001-1.173zm5.86 0a.587.587 0 1 0 .001 1.173.587.587 0 0 0-.001-1.173zm7.031-1.172a.586.586 0 0 1 .095 1.164l-.095.008H15.47a.586.586 0 0 1-.095-1.164l.095-.008h1.562zM8.757 5.2a1.76 1.76 0 0 1 2.486 0 .586.586 0 1 1-.829.829.582.582 0 0 0-.828 0 .586.586 0 0 1-.829-.829zM12.9 3.542a.586.586 0 1 1-.828.829 2.933 2.933 0 0 0-4.144 0 .586.586 0 0 1-.828-.829c1.599-1.6 4.201-1.6 5.8 0zm1.657-1.657a.586.586 0 1 1-.828.828 5.28 5.28 0 0 0-7.458 0 .586.586 0 1 1-.829-.828 6.453 6.453 0 0 1 9.115 0z"
            fill="#64686C" fill-rule="evenodd"/>
</svg>