<svg width="48" height="48" viewBox="0 0 48 48" fill="none" xmlns="http://www.w3.org/2000/svg">
<path fill-rule="evenodd" clip-rule="evenodd" d="M10 8C6.68629 8 4 10.6863 4 14V22V34C4 37.3137 6.68629 40 10 40H38C41.3137 40 44 37.3137 44 34V22V14C44 10.6863 41.3137 8 38 8H10ZM6 22H42V34L41.989 34.2985C41.8363 36.3682 40.1087 38 38 38H10L9.70148 37.989C7.63176 37.8363 6 36.1087 6 34V22ZM28 31C29.1046 31 30 30.1046 30 29C30 27.8954 29.1046 27 28 27C26.8954 27 26 27.8954 26 29C26 30.1046 26.8954 31 28 31ZM38 29C38 30.1046 37.1046 31 36 31C34.8954 31 34 30.1046 34 29C34 27.8954 34.8954 27 36 27C37.1046 27 38 27.8954 38 29ZM22 29C22 30.1046 21.1046 31 20 31C18.8954 31 18 30.1046 18 29C18 27.8954 18.8954 27 20 27C21.1046 27 22 27.8954 22 29ZM12 31C13.1046 31 14 30.1046 14 29C14 27.8954 13.1046 27 12 27C10.8954 27 10 27.8954 10 29C10 30.1046 10.8954 31 12 31Z" fill="#0973E7"/>
</svg>
