<svg width="24" height="24" viewBox="0 0 24 24" fill="none" xmlns="http://www.w3.org/2000/svg">
<circle cx="12" cy="12" r="12" fill="#00457C"/>
<path fill-rule="evenodd" clip-rule="evenodd" d="M15.4943 6.71402L15.5077 6.73025C16.4047 7.73636 17.0863 8.88416 17.5177 10.1151C17.8405 11.0393 18.0031 12.0029 18 12.9718C17.9994 13.3362 17.9756 13.7002 17.9289 14.0621C17.2624 19.0253 12.1195 19.9881 12.0674 19.9951C12.0215 20.0016 11.9748 20.0016 11.9289 19.9951C11.8777 19.9872 6.7348 19.0245 6.06742 14.0621C6.0221 13.7001 5.9996 13.3361 6.00004 12.9718C5.99713 12.0022 6.16013 11.0379 6.48327 10.113C6.91412 8.88235 7.59508 7.7347 8.49141 6.72858L8.50479 6.71236C9.41583 5.66567 10.5201 4.76839 11.7692 4.05992C11.7727 4.05793 11.7765 4.05676 11.7803 4.0556C11.7837 4.05458 11.787 4.05357 11.79 4.05202C11.8123 4.04153 11.8356 4.0329 11.8597 4.02622C11.8865 4.01878 11.914 4.01362 11.9418 4.01082C11.9609 4.00594 11.9803 4.00232 12 4C12.0221 4.00244 12.044 4.00633 12.0655 4.01165C12.0891 4.01437 12.1123 4.01854 12.1352 4.02414C12.164 4.03194 12.1919 4.0424 12.2183 4.05535C12.22 4.05601 12.2216 4.05654 12.2233 4.05708C12.2258 4.05788 12.2283 4.05867 12.2308 4.05992C13.4797 4.76896 14.5837 5.66681 15.4943 6.71402ZM6.92311 12.9718C6.92311 13.234 6.93926 13.4907 6.96372 13.7421L11.5385 15.8065V12.9818L7.21341 10.8545C7.02036 11.5468 6.92285 12.258 6.92311 12.9718ZM11.5385 9.20374L8.97002 7.54962C8.343 8.31017 7.84479 9.1505 7.49172 10.0431L11.5385 12.0334V9.20374ZM11.5385 8.18089V5.20803C10.8077 5.70408 10.1379 6.26922 9.54047 6.89379L11.5385 8.18089ZM11.5385 16.7366L7.14603 14.755C7.40828 15.7292 7.95333 16.8135 8.72523 17.5351C9.49713 18.2567 10.4681 18.7802 11.5385 19.0518V16.7366Z" fill="white"/>
</svg>
