<svg width="42" height="39" viewBox="0 0 42 39" fill="none" xmlns="http://www.w3.org/2000/svg">
<path fill-rule="evenodd" clip-rule="evenodd" d="M14.0108 23.0896C10.7341 23.0896 8.06812 20.6035 8.06812 17.5479C8.06812 14.4924 10.7341 12.0063 14.0108 12.0063C14.3118 12.0063 14.6103 12.0271 14.9046 12.0683C15.2937 8.91844 18.1711 6.4646 21.6515 6.4646C25.1322 6.4646 28.0093 8.91844 28.3984 12.0683C28.6927 12.0271 28.9912 12.0063 29.2921 12.0063C32.5688 12.0063 35.2349 14.4924 35.2349 17.5479C35.2349 20.6035 32.5688 23.0896 29.2921 23.0896H14.0108ZM14.0108 13.5896C11.6704 13.5896 9.76604 15.3652 9.76604 17.5479C9.76604 19.7304 11.6704 21.5063 14.0108 21.5063H29.2921C31.6329 21.5063 33.5369 19.7304 33.5369 17.5479C33.5369 15.3652 31.6329 13.5896 29.2921 13.5896C28.8038 13.5896 28.3257 13.6659 27.8711 13.8166C27.6033 13.9053 27.306 13.8633 27.0783 13.7045C26.8508 13.5458 26.7237 13.2917 26.7392 13.0273C26.7433 12.9569 26.7453 12.8819 26.7453 12.7979C26.7453 10.1786 24.4601 8.04793 21.6515 8.04793C18.8426 8.04793 16.5577 10.1786 16.5577 12.7979C16.5577 12.8819 16.5596 12.9569 16.5638 13.0273C16.5793 13.2917 16.4522 13.5458 16.2244 13.7045C15.997 13.8633 15.6994 13.9053 15.4319 13.8166C14.9775 13.6659 14.4991 13.5896 14.0108 13.5896ZM19.5282 27.4438C19.3666 27.4438 19.203 27.4008 19.0582 27.3108C18.668 27.0683 18.5627 26.5766 18.8228 26.213L19.6717 25.0255C19.9317 24.6616 20.4591 24.5634 20.8489 24.8059C21.2392 25.0484 21.3444 25.5399 21.0844 25.9037L20.2354 27.0912C20.0719 27.3201 19.8027 27.4438 19.5282 27.4438ZM11.842 27.3108C11.9868 27.4008 12.1504 27.4438 12.3121 27.4438C12.5865 27.4438 12.8557 27.3201 13.0193 27.0912L13.8682 25.9037C14.1283 25.5399 14.023 25.0484 13.6328 24.8059C13.2429 24.5634 12.7155 24.6616 12.4555 25.0255L11.6066 26.213C11.3465 26.5766 11.4518 27.0683 11.842 27.3108ZM27.5934 27.4438C27.4317 27.4438 27.2681 27.4008 27.1233 27.3108C26.7331 27.0683 26.6278 26.5766 26.8879 26.213L27.7368 25.0255C27.9968 24.6616 28.5239 24.5634 28.9141 24.8059C29.3043 25.0484 29.4096 25.5399 29.1495 25.9037L28.3006 27.0912C28.137 27.3201 27.8678 27.4438 27.5934 27.4438ZM19.0582 31.6649C19.203 31.7549 19.3666 31.7979 19.5282 31.7979C19.8027 31.7979 20.0719 31.6742 20.2354 31.4454L21.0844 30.2579C21.3444 29.894 21.2392 29.4025 20.8489 29.1601C20.4591 28.9176 19.9317 29.0158 19.6717 29.3797L18.8228 30.5672C18.5627 30.9307 18.668 31.4225 19.0582 31.6649ZM23.3486 29.0271C23.1869 29.0271 23.0233 28.9841 22.8785 28.8941C22.4883 28.6516 22.383 28.1599 22.6431 27.7963L23.492 26.6088C23.752 26.2449 24.2794 26.1468 24.6693 26.3893C25.0595 26.6317 25.1648 27.1232 24.9047 27.487L24.0557 28.6745C23.8922 28.9034 23.623 29.0271 23.3486 29.0271ZM26.6988 31.6649C26.8437 31.7549 27.0072 31.7979 27.1689 31.7979C27.4433 31.7979 27.7125 31.6742 27.8761 31.4454L28.725 30.2579C28.9851 29.894 28.8798 29.4025 28.4896 29.1601C28.0994 28.9176 27.5724 29.0158 27.3124 29.3797L26.4634 30.5672C26.2033 30.9307 26.3086 31.4225 26.6988 31.6649ZM15.7079 29.0271C15.5463 29.0271 15.3827 28.9841 15.2379 28.8941C14.8476 28.6516 14.7424 28.1599 15.0024 27.7963L15.8514 26.6088C16.1114 26.2449 16.6387 26.1468 17.0286 26.3893C17.4189 26.6317 17.5241 27.1232 17.2641 27.487L16.4151 28.6745C16.2515 28.9034 15.9823 29.0271 15.7079 29.0271ZM11.4175 31.6649C11.5624 31.7549 11.7259 31.7979 11.8876 31.7979C12.162 31.7979 12.4312 31.6742 12.5948 31.4454L13.4437 30.2579C13.7038 29.894 13.5985 29.4025 13.2083 29.1601C12.8184 28.9176 12.2911 29.0158 12.0311 29.3797L11.1821 30.5672C10.922 30.9307 11.0273 31.4225 11.4175 31.6649Z" fill="#414042"/>
</svg>
