<svg width="19" height="19" viewBox="0 0 19 19" fill="none" xmlns="http://www.w3.org/2000/svg">
<path d="M7.18427 14.1169C7.14813 13.431 6.62192 12.9963 6.15751 12.6128C5.84692 12.3561 5.52562 12.0909 5.52562 11.8736C5.52562 11.4977 5.79984 11.2476 6.25102 10.8803C6.67719 10.5336 7.1603 10.1409 7.1603 9.48946C7.1603 8.83848 6.6774 8.44528 6.25123 8.09861C5.79984 7.73131 5.52562 7.481 5.52562 7.10514C5.52562 6.89108 5.85156 6.6285 6.16656 6.37448C6.63686 5.99508 7.1702 5.56522 7.20508 4.88198C7.20634 4.85959 7.20676 4.8372 7.20676 4.81459C7.20676 4.32916 6.94052 3.82617 6.39416 3.27949C6.23949 3.12469 5.99384 3.13019 5.84569 3.29178C5.69731 3.45382 5.70278 3.71024 5.85745 3.86481C6.24496 4.25254 6.44563 4.58934 6.4305 4.83873C6.41454 5.15049 6.0474 5.44622 5.69248 5.73253C5.25076 6.08864 4.75 6.49238 4.75 7.10495C4.75 7.90411 5.318 8.36649 5.77465 8.73797C6.15417 9.04666 6.38468 9.2515 6.38468 9.48926C6.38468 9.72725 6.15415 9.93187 5.77465 10.2406C5.318 10.612 4.75 11.0742 4.75 11.8736C4.75 12.4837 5.24216 12.8901 5.67652 13.2488C6.02872 13.5398 6.3929 13.8403 6.40971 14.1615C6.42674 14.4078 6.23215 14.7523 5.85684 15.1396C5.70406 15.2968 5.70259 15.5535 5.85326 15.7126C6.00372 15.872 6.24938 15.8738 6.40173 15.7164C6.95522 15.1455 7.21578 14.6188 7.18427 14.1169Z" fill="black"/>
<path d="M10.8868 14.1168C10.8507 13.4309 10.3238 12.996 9.85899 12.6126C9.54797 12.356 9.22646 12.0905 9.22646 11.8734C9.22646 11.4977 9.50068 11.2475 9.95228 10.8804C10.3785 10.5337 10.8618 10.1407 10.8618 9.48931C10.8618 8.83833 10.3787 8.44513 9.95228 8.09846C9.50089 7.73116 9.22646 7.48085 9.22646 7.10499C9.22646 6.89115 9.55239 6.62835 9.86739 6.37455C10.3379 5.99515 10.8712 5.56529 10.9061 4.88205C10.9072 4.85966 10.9078 4.83727 10.9078 4.81466C10.9078 4.32923 10.6409 3.82624 10.0944 3.27911C9.93968 3.12432 9.69404 3.13026 9.54588 3.29185C9.39815 3.45345 9.40319 3.70987 9.55808 3.86488C9.94601 4.25284 10.1414 4.58961 10.1316 4.83881C10.1158 5.15057 9.74845 5.44629 9.39375 5.73238C8.95181 6.08849 8.45105 6.49223 8.45105 7.1048C8.45105 7.90396 9.01927 8.36634 9.47613 8.73782C9.85565 9.04673 10.0864 9.25135 10.0864 9.48911C10.0864 9.72688 9.85584 9.93172 9.47613 10.2404C9.01927 10.6119 8.45105 11.074 8.45105 11.8734C8.45105 12.4836 8.94361 12.89 9.3784 13.2489C9.73081 13.5396 10.0952 13.8404 10.1122 14.1614C10.1246 14.4189 9.93402 14.7522 9.55872 15.1392C9.40594 15.2964 9.40469 15.5529 9.55493 15.7125C9.70538 15.8719 9.95105 15.8736 10.1036 15.7165C10.6575 15.1456 10.9141 14.6187 10.8868 14.1168Z" fill="black"/>
<path d="M13.2586 3.86479C13.6464 4.2523 13.8479 4.58316 13.8321 4.83871C13.8162 5.15047 13.449 5.4462 13.0941 5.73228C12.6524 6.0884 12.1516 6.49214 12.1516 7.1047C12.1516 7.90365 12.7196 8.36624 13.176 8.73772C13.5554 9.04642 13.7859 9.25125 13.7859 9.48902C13.7859 9.72701 13.5555 9.93162 13.1758 10.2403C12.7194 10.612 12.1516 11.0739 12.1516 11.8733C12.1516 12.4835 12.644 12.8899 13.0783 13.2486C13.4308 13.5395 13.7949 13.8403 13.8118 14.1615C13.8267 14.4076 13.6342 14.7521 13.2591 15.1394C13.1063 15.2966 13.1048 15.5532 13.2555 15.7124C13.4059 15.8718 13.6516 15.8736 13.804 15.7161C14.3575 15.1453 14.6164 14.6186 14.5863 14.1167C14.5502 13.4308 14.0236 12.9961 13.5591 12.6126C13.2483 12.3559 12.927 12.0907 12.927 11.8733C12.927 11.4975 13.2013 11.2474 13.6524 10.8801C14.0784 10.5334 14.5613 10.1404 14.5613 9.48924C14.5613 8.83826 14.0784 8.44528 13.6524 8.09839C13.2013 7.73129 12.927 7.48101 12.927 7.10493C12.927 6.89108 13.253 6.62828 13.568 6.37426C14.0385 5.99509 14.5716 5.56522 14.6065 4.88198C14.6078 4.85937 14.6082 4.8372 14.6082 4.81459C14.6082 4.32916 14.3417 3.82617 13.7949 3.27904C13.6403 3.12425 13.3946 3.13019 13.2465 3.29179C13.0985 3.45335 13.1038 3.70977 13.2586 3.86479Z" fill="black"/>
</svg>
