<svg width="48" height="48" viewBox="0 0 48 48" fill="none" xmlns="http://www.w3.org/2000/svg">
<path fill-rule="evenodd" clip-rule="evenodd" d="M16 10V24H12V10L12.0135 9.76676C12.129 8.77208 12.9743 8 14 8C15.1046 8 16 8.89543 16 10ZM10 10L10 24C6.68629 24 4 26.6863 4 30V36C4 39.3137 6.68629 42 10 42H38C41.3137 42 44 39.3137 44 36V30C44 26.6863 41.3137 24 38 24V10C38 7.79086 36.2091 6 34 6C31.7909 6 30 7.79086 30 10V24H18V10C18 7.79086 16.2091 6 14 6C11.7909 6 10 7.79086 10 10ZM36 10V24H32V10L32.0135 9.76676C32.129 8.77208 32.9743 8 34 8C35.1046 8 36 8.89543 36 10ZM16 33C16 34.6569 14.6569 36 13 36C11.3431 36 10 34.6569 10 33C10 31.3431 11.3431 30 13 30C14.6569 30 16 31.3431 16 33ZM20 31.5C20 30.6716 20.6716 30 21.5 30H36.5C37.3284 30 38 30.6716 38 31.5V34.5C38 35.3284 37.3284 36 36.5 36H21.5C20.6716 36 20 35.3284 20 34.5V31.5Z" fill="#0973E7"/>
</svg>
