<svg width="13" height="16" viewBox="0 0 13 16" fill="none" xmlns="http://www.w3.org/2000/svg">
<path d="M10.4123 15.4117C10.3905 15.4001 10.3708 15.3856 10.3544 15.3692C10.2846 15.2994 10.2644 15.1901 10.3119 15.0979L11.6822 12.4431L0.906958 12.4431C0.842967 12.4431 0.784639 12.417 0.742845 12.3752C0.70044 12.3328 0.67411 12.2749 0.674414 12.2106L0.674806 1.05404C0.674806 0.925447 0.779062 0.821191 0.907657 0.821191C1.03625 0.821191 1.14051 0.925446 1.14051 1.05404L1.14012 11.9778L11.6822 11.9774L10.3118 9.32177C10.2526 9.20772 10.2977 9.06764 10.4116 9.00855C10.5262 8.94976 10.6667 8.99446 10.7253 9.10882L12.2706 12.1039C12.272 12.1065 12.2726 12.1092 12.2726 12.112C12.2791 12.1255 12.2812 12.1399 12.2852 12.1543C12.2864 12.1588 12.2878 12.1627 12.2889 12.1671C12.2898 12.1714 12.2895 12.1757 12.2901 12.1794C12.2915 12.1899 12.2965 12.199 12.2962 12.2097C12.2962 12.2195 12.2918 12.2282 12.2907 12.2375C12.2899 12.2426 12.2902 12.2472 12.289 12.2521C12.2878 12.2576 12.2861 12.262 12.2846 12.2669C12.281 12.2806 12.2791 12.2948 12.2729 12.307C12.2723 12.3104 12.2719 12.3133 12.2705 12.3165L10.7256 15.3102C10.6661 15.4255 10.5262 15.4702 10.4121 15.4115L10.4123 15.4117Z" fill="#929292"/>
</svg>
