<svg width="16" height="16" viewBox="0 0 16 16" fill="none" xmlns="http://www.w3.org/2000/svg">
<path fill-rule="evenodd" clip-rule="evenodd" d="M0.942542 7.99996C0.942542 10.1091 1.7995 12.1264 3.29346 13.5346C3.48729 13.7174 3.50375 14.0308 3.33008 14.2349C3.237 14.3443 3.10808 14.4 2.97883 14.4C2.86687 14.4 2.75437 14.3584 2.66454 14.2736C0.971208 12.6775 0 10.3907 0 7.99996C0 5.6092 0.971208 3.32263 2.66454 1.72637C2.85842 1.54377 3.15642 1.56105 3.33008 1.76504C3.50375 1.96908 3.48729 2.28271 3.29346 2.46548C1.7995 3.87349 0.942542 5.89081 0.942542 7.99996ZM15.3206 4.57769C14.8853 3.54101 14.265 2.62014 13.4769 1.84095C13.2873 1.6534 12.9889 1.66313 12.8107 1.8627C12.6325 2.06244 12.6417 2.37624 12.8315 2.56379C13.527 3.25173 14.0745 4.06415 14.4585 4.97871C14.856 5.9251 15.0575 6.93416 15.0575 7.97786C15.0575 9.03235 14.8519 10.0509 14.4466 11.0053C14.055 11.9275 13.4974 12.7446 12.7892 13.4334C12.5981 13.6194 12.5864 13.9332 12.763 14.1343C12.856 14.24 12.9824 14.2936 13.1092 14.2936C13.2236 14.2936 13.3384 14.2501 13.429 14.1619C14.2313 13.3815 14.8631 12.4556 15.3071 11.4101C15.7669 10.3275 16 9.1728 16 7.97803C16 6.79507 15.7715 5.65121 15.3206 4.57769ZM4.05092 7.964C4.05092 8.99586 4.49575 9.9508 5.27146 10.5843C5.477 10.7521 5.51446 11.0637 5.35496 11.2802C5.262 11.4061 5.12283 11.4721 4.98221 11.4721C4.88133 11.4721 4.77958 11.4381 4.69367 11.3679C3.68617 10.5452 3.10821 9.30453 3.10821 7.964C3.10821 6.67417 3.65083 5.46296 4.59696 4.64123C4.79783 4.46688 5.09487 4.49683 5.26054 4.70806C5.42625 4.91942 5.39775 5.23204 5.19708 5.40639C4.46854 6.03899 4.05092 6.97117 4.05092 7.964ZM11.4029 4.67724C11.2022 4.50284 10.9051 4.53283 10.7395 4.74402C10.5738 4.95538 10.6023 5.268 10.8029 5.44239C11.5313 6.07499 11.9491 7.0073 11.9491 7.99996C11.9491 8.99279 11.5313 9.92493 10.8029 10.5575C10.6023 10.7319 10.5738 11.0445 10.7395 11.2559C10.8325 11.3748 10.9673 11.4361 11.1032 11.4361C11.2088 11.4361 11.3151 11.3989 11.4029 11.3227C12.3492 10.5008 12.8918 9.28979 12.8918 7.99996C12.8918 6.71013 12.3492 5.49909 11.4029 4.67724ZM8 5.82008C6.85792 5.82008 5.92871 6.798 5.92871 7.99996C5.92871 9.20209 6.85792 10.18 8 10.18C9.14225 10.18 10.0715 9.20209 10.0715 7.99996C10.0715 6.798 9.14208 5.82008 8 5.82008Z" fill="#0973E7"/>
</svg>
