<svg width="42" height="39" viewBox="0 0 42 39" fill="none" xmlns="http://www.w3.org/2000/svg">
<path fill-rule="evenodd" clip-rule="evenodd" d="M32.7079 24.8114L29.9978 23.3524L32.3463 22.0611C32.7797 21.8229 32.9237 21.3021 32.6682 20.898C32.4128 20.4944 31.8549 20.3601 31.4215 20.5979L28.1862 22.3768L23.3088 19.7503L28.1856 17.1245L31.4215 18.9034C31.5668 18.9829 31.7256 19.0212 31.8827 19.0212C32.1946 19.0212 32.4987 18.8713 32.6682 18.6027C32.9237 18.1991 32.7797 17.6784 32.3463 17.4401L29.9972 16.1493L32.7079 14.6899C33.1436 14.4554 33.2923 13.9357 33.041 13.53C32.7897 13.1237 32.2331 12.9844 31.7974 13.2188L29.0873 14.6783L29.0629 12.1353C29.0582 11.6664 28.6456 11.2873 28.1442 11.2938C27.6414 11.2983 27.2372 11.6814 27.2419 12.1507L27.2757 15.6534L22.3983 18.2799V13.0274L25.6687 11.3044C26.1062 11.0733 26.2603 10.5553 26.0131 10.1473C25.7659 9.73873 25.2099 9.59509 24.7724 9.82548L22.3983 11.0771V8.15821C22.3983 7.68949 21.9905 7.30908 21.4878 7.30908C20.9852 7.30908 20.5773 7.68949 20.5773 8.15821V11.0771L18.2033 9.82548C17.7652 9.59509 17.2098 9.73873 16.9626 10.1473C16.7148 10.5553 16.8696 11.0733 17.3071 11.3044L20.5773 13.028V18.2799L15.6994 15.6534L15.7337 12.1507C15.738 11.6814 15.3343 11.2983 14.8309 11.2938H14.8228C14.3241 11.2938 13.917 11.6687 13.9127 12.1353L13.8878 14.6783L11.1777 13.2188C10.7426 12.9844 10.1854 13.1237 9.93411 13.53C9.68266 13.9357 9.83213 14.4554 10.2672 14.6899L12.9779 16.1493L10.6288 17.4406C10.1954 17.6784 10.0514 18.1991 10.307 18.6032C10.4765 18.8719 10.78 19.0212 11.0918 19.0212C11.2489 19.0212 11.4084 18.9835 11.5536 18.9034L14.7901 17.125L19.6668 19.7508L14.7889 22.3774L11.5536 20.5979C11.1208 20.3601 10.5618 20.4938 10.307 20.898C10.0514 21.3021 10.1954 21.8229 10.6282 22.0606L12.9773 23.3524L10.2672 24.8114C9.83213 25.0458 9.68266 25.5654 9.93411 25.9712C10.103 26.2437 10.4089 26.3957 10.7237 26.3957C10.8777 26.3957 11.0343 26.3594 11.1777 26.2819L13.8878 24.823L13.9127 27.366C13.917 27.8326 14.3235 28.2074 14.8228 28.2074C14.8256 28.2074 14.8287 28.2074 14.8309 28.2074C15.3343 28.203 15.738 27.8199 15.7333 27.3504L15.6994 23.8473L20.5773 21.2214V26.4731L17.3071 28.1969C16.8696 28.428 16.7148 28.946 16.9626 29.354C17.1298 29.6304 17.4386 29.7857 17.7558 29.7857C17.9075 29.7857 18.0616 29.7504 18.2033 29.6756L20.5773 28.424V31.3429C20.5773 31.8118 20.9852 32.192 21.4878 32.192C21.9905 32.192 22.3983 31.8118 22.3983 31.3429V28.424L24.7724 29.6756C24.9142 29.7504 25.0676 29.7857 25.2193 29.7857C25.5371 29.7857 25.8459 29.6304 26.0131 29.354C26.2603 28.946 26.1062 28.428 25.6687 28.1969L22.3983 26.4731V21.2214L27.2757 23.8473L27.2413 27.3504C27.2366 27.8193 27.6402 28.203 28.143 28.2074C28.1458 28.2074 28.1489 28.2074 28.1518 28.2074C28.6504 28.2074 29.0576 27.8326 29.0618 27.3666L29.0873 24.823L31.7974 26.2825C31.9408 26.3594 32.0973 26.3963 32.2521 26.3963C32.5668 26.3963 32.8727 26.2437 33.041 25.9712C33.2929 25.5654 33.1436 25.0458 32.7079 24.8114Z" fill="#414042"/>
</svg>
