<svg width="41" height="39" viewBox="0 0 41 39" fill="none" xmlns="http://www.w3.org/2000/svg">
<path fill-rule="evenodd" clip-rule="evenodd" d="M21.1906 10.6868C20.7016 10.6868 20.3054 10.3089 20.3054 9.84238V7.30904C20.3054 6.84256 20.7016 6.4646 21.1906 6.4646C21.6796 6.4646 22.0758 6.84256 22.0758 7.30904V9.84238C22.0758 10.3089 21.6796 10.6868 21.1906 10.6868ZM21.1906 27.5757C16.7977 27.5757 13.2238 24.1663 13.2238 19.9757C13.2238 15.7851 16.7977 12.3757 21.1906 12.3757C25.5835 12.3757 29.1574 15.7851 29.1574 19.9757C29.1574 24.1663 25.5835 27.5757 21.1906 27.5757ZM21.1906 14.0646C17.774 14.0646 14.9942 16.7164 14.9942 19.9757C14.9942 23.235 17.774 25.8868 21.1906 25.8868C24.6072 25.8868 27.387 23.235 27.387 19.9757C27.387 16.7164 24.6072 14.0646 21.1906 14.0646ZM20.3054 32.6424C20.3054 33.1089 20.7016 33.4868 21.1906 33.4868C21.6796 33.4868 22.0758 33.1089 22.0758 32.6424V30.109C22.0758 29.6426 21.6796 29.2646 21.1906 29.2646C20.7016 29.2646 20.3054 29.6426 20.3054 30.109V32.6424ZM34.4686 20.8202H31.813C31.324 20.8202 30.9278 20.4422 30.9278 19.9757C30.9278 19.5092 31.324 19.1313 31.813 19.1313H34.4686C34.9576 19.1313 35.3538 19.5092 35.3538 19.9757C35.3538 20.4422 34.9576 20.8202 34.4686 20.8202ZM7.91255 20.8202H10.5682C11.0572 20.8202 11.4534 20.4422 11.4534 19.9757C11.4534 19.5092 11.0572 19.1313 10.5682 19.1313H7.91255C7.42355 19.1313 7.02734 19.5092 7.02734 19.9757C7.02734 20.4422 7.42355 20.8202 7.91255 20.8202ZM28.7018 13.6548C27.9203 13.6548 27.5167 12.7468 28.076 12.2132L29.9536 10.4218C30.2993 10.0923 30.8598 10.092 31.2056 10.4218C31.5514 10.7517 31.5514 11.2864 31.2056 11.6162L29.3277 13.4073C29.1548 13.5723 28.9284 13.6548 28.7018 13.6548ZM11.1755 28.3352C10.6162 28.8688 11.02 29.777 11.8015 29.777C12.0282 29.777 12.2547 29.6942 12.4276 29.5296L14.3052 27.7382C14.651 27.4083 14.651 26.8736 14.3052 26.5441C13.9597 26.2142 13.3993 26.2142 13.0534 26.5441L11.1755 28.3352ZM30.5797 29.777C30.3529 29.777 30.1265 29.6945 29.9536 29.5296L28.076 27.7382C27.7302 27.4083 27.7302 26.8736 28.076 26.5441C28.4214 26.2142 28.9822 26.2142 29.3277 26.5441L31.2056 28.3352C31.7649 28.8688 31.3612 29.777 30.5797 29.777ZM13.0534 13.4073C13.2263 13.5723 13.4528 13.6548 13.6793 13.6548C14.4608 13.6548 14.8645 12.7468 14.3052 12.2132L12.4276 10.4218C12.0818 10.0923 11.5214 10.0923 11.1755 10.4218C10.8298 10.7517 10.8298 11.2864 11.1755 11.6162L13.0534 13.4073Z" fill="#414042"/>
</svg>
