<svg width="25" height="27" viewBox="0 0 25 27" fill="none" xmlns="http://www.w3.org/2000/svg">
<g clip-path="url(#clip0_232_23888)">
<path d="M25 20.1404C25 19.7208 24.6951 19.3741 24.3261 19.3741H2.77599L9.45924 14.5397C9.74005 14.339 9.82028 13.9194 9.64377 13.6002C9.53145 13.3995 9.3389 13.2809 9.13832 13.2809C9.02599 13.2809 8.91367 13.3174 8.81739 13.3904L0.280809 19.5657C0.1043 19.6934 0 19.9032 0 20.1404C0 20.3775 0.1043 20.5873 0.280809 20.715L8.80937 26.8904C9.09018 27.091 9.45924 26.9998 9.63575 26.6806C9.81226 26.3613 9.73203 25.9417 9.45122 25.741L2.76797 20.9066H24.318C24.6951 20.9066 25 20.56 25 20.1404Z" fill="black"/>
<path d="M0.673941 7.62557H22.224L15.5408 12.46C15.2599 12.6607 15.1797 13.0803 15.3562 13.3996C15.5327 13.7188 15.9098 13.81 16.1826 13.6094L24.7192 7.42489C24.8957 7.29719 25 7.07827 25 6.85023C25 6.61307 24.8957 6.40327 24.7192 6.27557L16.1826 0.100228C16.0863 0.027256 15.974 -0.00923157 15.8617 -0.00923157C15.6611 -0.00923157 15.4685 0.100227 15.3562 0.310025C15.1797 0.629282 15.2599 1.04888 15.5408 1.24955L22.224 6.08401H0.673941C0.304878 6.08401 0 6.43063 0 6.85023C0 7.27895 0.304878 7.62557 0.673941 7.62557Z" fill="black"/>
</g>
<defs>
<clipPath id="clip0_232_23888">
<rect width="25" height="27" fill="white" transform="matrix(1 0 0 -1 0 27)"/>
</clipPath>
</defs>
</svg>
