<svg width="41" height="39" viewBox="0 0 41 39" fill="none" xmlns="http://www.w3.org/2000/svg">
<path fill-rule="evenodd" clip-rule="evenodd" d="M29.9865 14.7202C30.0329 11.6203 26.9019 9.3652 23.8004 10.2495C22.8407 8.31221 20.7845 6.95093 18.3555 6.95093C15.1125 6.95093 12.4605 9.4114 12.343 12.4781C8.07131 13.3641 6.4034 18.479 9.57184 21.4998C10.632 22.5116 12.0422 23.069 13.5424 23.069H16.3479L15.2446 24.9983C14.9537 25.507 15.3401 26.1299 15.9489 26.1299H19.9598V30.7214C19.9598 31.0711 20.2084 31.3763 20.5637 31.4629C20.9166 31.5488 21.2895 31.3968 21.4661 31.0878L26.0513 23.069H29.1849C31.6176 23.069 33.5969 21.1808 33.5969 18.8601C33.5969 16.7808 32.0239 15.0749 29.9865 14.7202ZM21.5642 27.7203V25.3647C21.5642 24.9421 21.205 24.5995 20.762 24.5995H17.3003C17.7856 23.7504 19.2689 21.1563 19.9598 19.9481V22.3037C19.9598 22.7263 20.3191 23.069 20.762 23.069H24.2237L21.5642 27.7203ZM29.1849 21.5385C28.4353 21.5385 22.3153 21.5385 21.5642 21.5385V16.947C21.5642 16.5971 21.3156 16.2918 20.9604 16.2055C20.6048 16.1191 20.2335 16.2733 20.0577 16.5804L17.2229 21.5385H13.5424C11.3264 21.5385 9.53152 19.8275 9.53152 17.7123C9.53152 15.7275 11.1537 14.052 13.2248 13.898C13.6687 13.8648 14.0006 13.4924 13.9616 13.0679C13.7316 10.5757 15.7941 8.48141 18.3555 8.48141C20.2835 8.48141 22.02 9.70941 22.5783 11.4677C22.7235 11.9248 23.2674 12.1441 23.712 11.9268C26.09 10.7637 28.8542 12.7461 28.3186 15.2643C28.2181 15.7365 28.596 16.1818 29.1048 16.1818C30.8557 16.1818 31.9925 17.4656 31.9925 18.8601C31.9925 20.337 30.733 21.5385 29.1849 21.5385Z" fill="#414042"/>
</svg>
