<svg width="16" height="16" viewBox="0 0 16 16" fill="none" xmlns="http://www.w3.org/2000/svg">
<path d="M7.98077 14.993C7.36812 14.993 6.76085 14.9133 6.17566 14.7558C3.65395 14.0774 1.67945 11.9885 1.14543 9.43363C0.601176 6.83086 1.60566 4.09478 3.70484 2.4631C4.9183 1.51975 6.44873 1 8.01443 1C9.09836 1 10.1747 1.25206 11.1275 1.72845C13.4804 2.90556 15.0006 5.36479 15.0006 7.99396C15.0006 10.1392 13.9883 12.2069 12.2928 13.5248C11.075 14.4717 9.54351 14.993 7.98077 14.993ZM8.0147 2.0772C6.68733 2.0772 5.39146 2.51615 4.36624 3.31355C2.58968 4.69451 1.73923 7.01021 2.2 9.21307C2.65189 11.3742 4.32235 13.1416 6.45573 13.7155C6.94963 13.8482 7.46291 13.9158 7.98077 13.9158H7.98104C9.30545 13.9158 10.6019 13.475 11.6319 12.6744C13.067 11.5589 13.9237 9.8093 13.9237 7.99396C13.9237 5.76928 12.6372 3.68814 10.646 2.692C9.84189 2.28994 8.9322 2.0772 8.0147 2.0772Z" fill="#0973E7"/>
<path d="M7.99883 11.467C7.70153 11.467 7.46024 11.2257 7.46024 10.9284V6.6748C7.46024 6.37749 7.70153 6.1362 7.99883 6.1362C8.29614 6.1362 8.53743 6.37749 8.53743 6.6748V10.9284C8.53743 11.2259 8.29641 11.467 7.99883 11.467Z" fill="#0973E7"/>
<path d="M7.99883 5.59805C7.8561 5.59805 7.71876 5.5415 7.61912 5.43917C7.51679 5.33952 7.46024 5.20218 7.46024 5.05945C7.46024 4.91673 7.51679 4.77938 7.61912 4.67974C7.8184 4.47777 8.17926 4.47777 8.37854 4.67705C8.48088 4.77938 8.53743 4.91673 8.53743 5.05945C8.53743 5.19949 8.48088 5.33952 8.37854 5.43917C8.2789 5.5415 8.14156 5.59805 7.99883 5.59805Z" fill="#0973E7"/>
</svg>
