<svg width="20" height="24" viewBox="0 0 20 24" fill="none" xmlns="http://www.w3.org/2000/svg">
<g clip-path="url(#clip0_1354_45069)">
<path d="M19.9563 21.2491C19.4861 16.9444 15.7682 14.3747 10.0055 14.3747C4.45055 14.3747 0.858418 16.6644 0.14218 20.6507C0.0437654 21.2217 0.00549316 22.8634 0.00549316 23.2313C0.00549316 23.6541 0.349944 24 0.770939 24H19.24C19.4423 24 19.6392 23.9176 19.7868 23.7694C19.9289 23.6211 20.011 23.4235 20.0055 23.2203C19.9782 21.4852 19.9618 21.3041 19.9563 21.2491ZM1.54732 22.4626C1.56919 21.8586 1.60199 21.1613 1.64573 20.9197C2.42758 16.5601 7.21708 15.9067 10.0055 15.9067C12.362 15.9067 17.8951 16.4447 18.4363 21.4084C18.4418 21.4852 18.4527 21.8367 18.4637 22.4626H1.54732ZM10 12.6671C13.0727 12.6671 15.5714 9.6582 15.5714 5.96294C15.5714 2.45436 13.2805 0 10 0C6.71954 0 4.43414 2.45436 4.43414 5.96294C4.43414 9.6582 6.93278 12.6671 10 12.6671ZM10 1.53741C12.4166 1.53741 14.0405 3.3164 14.0405 5.96294C14.0405 8.81263 12.2308 11.1297 10 11.1297C7.7693 11.1297 5.95957 8.81263 5.95957 5.96294C5.96503 3.3164 7.58887 1.53741 10 1.53741Z" fill="black"/>
</g>
<defs>
<clipPath id="clip0_1354_45069">
<rect width="20" height="24" fill="white"/>
</clipPath>
</defs>
</svg>
