<svg width="20" height="19" viewBox="0 0 20 19" fill="none" xmlns="http://www.w3.org/2000/svg">
<path fill-rule="evenodd" clip-rule="evenodd" d="M7.03627 1.64558C8.37726 -0.550176 11.6247 -0.546875 12.9637 1.64558L12.9711 1.65768L19.5106 13.3501C20.8907 15.6321 19.1784 18.4473 16.5391 18.4473H3.46066C0.818968 18.4473 -0.890276 15.6297 0.489733 13.3499L7.02888 1.65769L7.03627 1.64558ZM8.30681 2.40621L1.76854 14.0969L1.76111 14.109C1.00736 15.3427 1.89726 16.9666 3.46066 16.9666H16.5391C18.1013 16.9666 18.9928 15.3438 18.239 14.1088L18.2317 14.0967L11.6931 2.4062C10.9288 1.17285 9.07189 1.1716 8.30681 2.40621Z" fill="#DD2939"/>
<path fill-rule="evenodd" clip-rule="evenodd" d="M10.0012 5.36768C9.57605 5.36768 9.22998 5.76318 9.22998 6.24906V10.656C9.22998 11.1418 9.57605 11.5373 10.0012 11.5373C10.4263 11.5373 10.7724 11.1418 10.7724 10.656V6.24906C10.7724 5.76318 10.4263 5.36768 10.0012 5.36768ZM10.7724 13.851C10.7724 13.4258 10.4263 13.0798 10.0012 13.0798C9.57605 13.0798 9.22998 13.4258 9.22998 13.851C9.22998 14.2761 9.57605 14.6222 10.0012 14.6222C10.4263 14.6222 10.7724 14.2761 10.7724 13.851Z" fill="#DD2939"/>
</svg>
