<svg width="33" height="33" viewBox="0 0 33 33" fill="none" xmlns="http://www.w3.org/2000/svg">
<path fill-rule="evenodd" clip-rule="evenodd" d="M12.7844 7.10686C13.2589 7.10686 13.6438 6.72325 13.6438 6.24973V4.52382C13.6438 4.05038 13.2589 3.66669 12.7844 3.66669C12.3097 3.66669 11.925 4.05038 11.925 4.52382V6.24973C11.925 6.72325 12.3097 7.10686 12.7844 7.10686ZM4.98794 10.2446L3.48912 9.38149C3.07823 9.14462 2.55244 9.28511 2.31525 9.69516C2.07799 10.105 2.21885 10.6294 2.62975 10.866L4.12857 11.7291C4.53855 11.9651 5.06464 11.8261 5.30244 11.4154C5.5397 11.0053 5.39884 10.4812 4.98794 10.2446ZM2.62975 20.5813L4.12857 19.7182C4.53977 19.4814 5.06525 19.6221 5.30244 20.0319C5.5397 20.442 5.39884 20.9661 4.98794 21.2028L3.48912 22.0659C3.08029 22.3015 2.55397 22.1641 2.31525 21.7521C2.07799 21.3421 2.21885 20.818 2.62975 20.5813ZM21.4399 11.7291L22.9387 10.866C23.3496 10.6294 23.4904 10.105 23.2532 9.69516C23.016 9.28511 22.4905 9.14462 22.0793 9.38149L20.5805 10.2446C20.1696 10.4812 20.0288 11.0053 20.266 11.4154C20.5044 11.8273 21.0308 11.9645 21.4399 11.7291ZM19.0587 12.924C21.6839 12.9127 24.0702 14.516 25.0541 16.9403C28.5175 16.6698 31.5333 19.403 31.5333 22.9235C31.5333 26.0062 29.2023 28.547 26.1987 28.8851C26.183 28.8899 26.1717 28.8943 26.1602 28.8981C25.9986 28.9519 25.8053 28.9104 13.1816 28.9234C9.36953 28.9234 7.05281 24.714 9.09025 21.5034C7.17939 20.284 5.90942 18.1492 5.90942 15.7236C5.90942 11.9427 8.99331 8.8666 12.7841 8.8666C15.5756 8.8666 17.983 10.5348 19.0587 12.924ZM12.7844 10.5809C9.94099 10.5809 7.62817 12.888 7.62817 15.7236C7.62817 17.6543 8.70059 19.3391 10.2821 20.2183C10.9752 19.6983 11.78 19.3802 12.6337 19.287C12.6641 16.4499 14.5497 13.9773 17.2651 13.1836C16.3767 11.6306 14.7015 10.5809 12.7844 10.5809ZM18.3152 27.2089C22.0536 27.21 25.6672 27.2112 25.8737 27.1943C28.0836 27.0143 29.8146 25.1381 29.8146 22.9235C29.8146 20.2164 27.3212 18.1743 24.6425 18.7269C24.198 18.8183 23.7584 18.5492 23.6393 18.1123C23.0819 16.0665 21.2063 14.6379 19.0781 14.6379C16.2016 14.6379 13.9998 17.1773 14.3981 20.0132C14.4745 20.5575 14.023 21.0355 13.4692 20.9858C12.551 20.9025 11.7084 21.209 11.0755 21.7855C8.96704 23.7057 10.348 27.2092 13.1816 27.2092C14.6755 27.2077 16.5099 27.2083 18.3152 27.2089Z" fill="#373737"/>
</svg>
