<svg width="40" height="40" viewBox="0 0 40 40" fill="none" xmlns="http://www.w3.org/2000/svg">
<path fill-rule="evenodd" clip-rule="evenodd" d="M6.48438 23.4375H14.5312V30.625C14.5312 31.0559 14.1809 31.4062 13.75 31.4062H9.7449C9.39698 30.0598 8.17219 29.0625 6.71875 29.0625C4.99552 29.0625 3.59375 30.4643 3.59375 32.1875C3.59375 33.9107 4.99552 35.3125 6.71875 35.3125C8.17219 35.3125 9.39698 34.3152 9.7449 32.9688H13.75C15.0423 32.9688 16.0938 31.9173 16.0938 30.625V23.4375H19.2188V33.8489C17.8723 34.1968 16.875 35.4216 16.875 36.875C16.875 38.5982 18.2768 40 20 40C21.7232 40 23.125 38.5982 23.125 36.875C23.125 35.4216 22.1277 34.1968 20.7812 33.8489V23.4375H23.9062V30.625C23.9062 31.9173 24.9577 32.9688 26.25 32.9688H30.2551C30.603 34.3152 31.8278 35.3125 33.2812 35.3125C35.0045 35.3125 36.4062 33.9107 36.4062 32.1875C36.4062 30.4643 35.0045 29.0625 33.2812 29.0625C31.8278 29.0625 30.603 30.0598 30.2551 31.4062H26.25C25.8191 31.4062 25.4688 31.0559 25.4688 30.625V23.4375H33.5156C37.0304 23.4375 40 20.5753 40 17.1875C40 14.2627 37.7636 11.7647 34.9186 11.121C34.2644 7.56427 31.069 4.83354 27.3335 4.69323C25.6583 1.78594 22.5928 0 19.2188 0C15.844 0 12.7779 1.78625 11.1027 4.69438C7.72219 4.85354 4.92188 7.64771 4.92188 10.9375C4.92188 11.012 4.92396 11.0856 4.92802 11.158C2.11021 11.8656 0 14.3827 0 17.1875C0 20.5753 2.96958 23.4375 6.48438 23.4375ZM5.88823 12.5639C6.32448 12.5077 6.62927 12.1025 6.56083 11.6675C6.51729 11.3924 6.48438 11.1646 6.48438 10.9375C6.48438 8.40531 8.72229 6.2651 11.3781 6.25C11.8127 6.31385 12.1143 6.12344 12.2592 5.83906C13.6027 3.20104 16.2692 1.5625 19.2188 1.5625C22.1683 1.5625 24.8348 3.20104 26.1783 5.83906C26.3253 6.1275 26.628 6.31385 27.0601 6.25C30.3255 6.26469 33.1286 8.7276 33.4481 11.8693C33.4847 12.2298 33.7647 12.5179 34.124 12.5651C36.5426 12.8817 38.4375 14.9121 38.4375 17.1875C38.4375 19.7282 36.1836 21.875 33.5156 21.875H6.48438C3.81635 21.875 1.5625 19.7282 1.5625 17.1875C1.5625 14.906 3.46271 12.8752 5.88823 12.5639Z" fill="#0973E7"/>
</svg>
