<svg width="18" height="18" viewBox="0 0 18 18" fill="none" xmlns="http://www.w3.org/2000/svg">
<g clip-path="url(#clip0_577_40874)">
<path d="M12.1063 10.5461H5.33714C3.99725 10.5461 2.90717 9.40724 2.90717 8.00736C2.90717 6.78602 3.73038 5.77384 4.81819 5.5267C4.86902 4.07325 6.01662 2.90714 7.41997 2.90714C8.4731 2.90714 9.36208 3.55416 9.77661 4.47118C11.127 4.05174 12.4744 5.12723 12.4532 6.58963C13.341 6.76057 14.0156 7.5752 14.0156 8.55138C14.0156 9.65128 13.1591 10.5461 12.1063 10.5461ZM7.41997 3.6325C6.30398 3.6325 5.41898 4.63391 5.51843 5.80599C5.53544 6.00662 5.39246 6.18386 5.19969 6.19957C4.30347 6.27274 3.60144 7.06681 3.60144 8.00736C3.60144 9.00727 4.38008 9.82077 5.33714 9.82077H12.1063C12.7763 9.82077 13.3213 9.25131 13.3213 8.55138C13.3213 7.89263 12.8278 7.28199 12.0715 7.28199C11.8525 7.28199 11.6876 7.07202 11.7313 6.84713C11.9631 5.65491 10.7676 4.71341 9.73808 5.26534C9.54559 5.36852 9.31018 5.26441 9.24737 5.04782C9.0057 4.21451 8.25423 3.6325 7.41997 3.6325Z" fill="black"/>
<path d="M9.67655 13.2664C9.42144 13.2664 9.25017 12.9841 9.36631 12.7414L10.0606 11.2907C10.1463 11.1115 10.3549 11.0389 10.5263 11.1285C10.6978 11.2181 10.7673 11.4359 10.6816 11.6151L9.9873 13.0658C9.92649 13.1929 9.80386 13.2664 9.67655 13.2664Z" fill="black"/>
<path d="M12.8008 13.2664C12.5457 13.2664 12.3744 12.9841 12.4906 12.7414L13.1849 11.2907C13.2706 11.1115 13.4791 11.0389 13.6506 11.1285C13.8221 11.2181 13.8916 11.4359 13.8058 11.6151L13.1116 13.0658C13.0508 13.1929 12.9281 13.2664 12.8008 13.2664Z" fill="black"/>
<path d="M6.55234 13.2664C6.29724 13.2664 6.12597 12.9841 6.24211 12.7414L6.93638 11.2907C7.0221 11.1115 7.23067 11.0389 7.40211 11.1285C7.5736 11.2181 7.64309 11.4359 7.55737 11.6151L6.86309 13.0658C6.80228 13.1929 6.67965 13.2664 6.55234 13.2664Z" fill="black"/>
<path d="M3.42807 13.2664C3.17297 13.2664 3.0017 12.9841 3.11784 12.7414L3.81212 11.2907C3.89784 11.1115 4.1064 11.0389 4.27785 11.1285C4.44933 11.2181 4.51882 11.4359 4.4331 11.6151L3.73883 13.0658C3.67801 13.1929 3.55538 13.2664 3.42807 13.2664Z" fill="black"/>
<path d="M7.59372 14.5358C7.33862 14.5358 7.16735 14.2535 7.28349 14.0108L7.97777 12.5601C8.06351 12.3809 8.27203 12.3083 8.4435 12.3979C8.61498 12.4875 8.68447 12.7053 8.59875 12.8845L7.90448 14.3352C7.84366 14.4623 7.72103 14.5358 7.59372 14.5358Z" fill="black"/>
<path d="M10.7179 14.5358C10.4628 14.5358 10.2916 14.2535 10.4077 14.0108L11.102 12.5601C11.1877 12.3809 11.3962 12.3083 11.5677 12.3979C11.7392 12.4875 11.8087 12.7053 11.723 12.8845L11.0287 14.3352C10.9679 14.4623 10.8452 14.5358 10.7179 14.5358Z" fill="black"/>
<path d="M4.46945 14.5358C4.21435 14.5358 4.04308 14.2535 4.15922 14.0108L4.8535 12.5601C4.93924 12.3809 5.14776 12.3083 5.31923 12.3979C5.49071 12.4875 5.56021 12.7053 5.47449 12.8845L4.78021 14.3352C4.71939 14.4623 4.59677 14.5358 4.46945 14.5358Z" fill="black"/>
</g>
<defs>
<clipPath id="clip0_577_40874">
<rect width="17.4429" height="17.4429" fill="white"/>
</clipPath>
</defs>
</svg>
