<svg width="25" height="25" viewBox="0 0 25 25" fill="none" xmlns="http://www.w3.org/2000/svg">
<path fill-rule="evenodd" clip-rule="evenodd" d="M20.1895 12.926C15.263 13.9723 10.7983 16.7645 7.71409 20.7858C7.70035 20.8076 7.6846 20.8275 7.66777 20.8462C7.23872 21.41 6.83621 21.9973 6.46369 22.6077L5.74933 23.7781C5.66105 23.9227 5.50667 24.0028 5.34883 24.0028C5.26552 24.0028 5.18128 23.9806 5.10491 23.9339C4.88405 23.7991 4.81411 23.5105 4.94908 23.2897L5.66344 22.1193C5.95298 21.6446 6.26079 21.1822 6.58478 20.7321C4.94284 20.0758 3.22402 19.7425 1.466 19.7425C1.20722 19.7425 0.997192 19.5326 0.997192 19.2737C0.997192 19.0148 1.20722 18.8049 1.466 18.8049C3.42856 18.8049 5.34517 19.1924 7.16878 19.9571C7.78352 19.1773 8.44974 18.4397 9.16246 17.7503C6.7567 16.5832 4.1087 15.9686 1.466 15.9686C1.20722 15.9686 0.997192 15.7587 0.997192 15.4998C0.997192 15.2409 1.20722 15.031 1.466 15.031C4.37038 15.031 7.28026 15.7351 9.89919 17.0694C10.5994 16.4506 11.3391 15.8758 12.1135 15.3495C8.88118 13.4678 5.21461 12.476 1.466 12.476C1.20708 12.476 0.997192 12.2661 0.997192 12.0072C0.997192 11.7483 1.20708 11.5384 1.466 11.5384C2.15692 11.5384 2.84513 11.5714 3.52874 11.6353V10.0717C2.2474 8.96949 1.54438 7.53195 1.54438 6.00065C1.54438 4.40066 2.3113 2.90288 3.70379 1.78323C3.87542 1.64535 4.11967 1.64535 4.2913 1.78323C5.68379 2.90306 6.45071 4.40066 6.45071 6.00065C6.45071 7.53214 5.74769 8.96968 4.46635 10.0719V11.7431C4.79597 11.7882 5.12413 11.8409 5.45084 11.9008V10.1106C5.45084 9.98145 5.50302 9.86482 5.58726 9.78001V9.77982L8.21257 7.13895C8.30047 7.05053 8.42025 7.0007 8.54495 7.0007H13.9049C14.0298 7.0007 14.1494 7.05053 14.2375 7.13895L16.8628 9.77982V9.78001C16.947 9.86482 16.999 9.98146 16.999 10.1104V12.8553C17.8586 12.5441 18.7365 12.2857 19.6273 12.083V10.8793C17.933 9.44491 17.0027 7.56528 17.0027 5.56372C17.0027 3.49418 17.997 1.55506 19.8023 0.103407C19.9739 -0.0344689 20.2184 -0.0344689 20.39 0.103407C22.1954 1.55506 23.1896 3.49418 23.1896 5.56372C23.1896 7.56528 22.2595 9.44491 20.565 10.8793V11.8913C21.8704 11.6527 23.1982 11.5307 24.5312 11.5307C24.79 11.5307 25 11.7406 25 11.9995C25 12.2583 24.79 12.4683 24.5312 12.4683C23.0613 12.4683 21.6078 12.6249 20.192 12.9254L20.1895 12.926ZM20.0962 1.08222C18.7028 2.31907 17.9405 3.89744 17.9405 5.56372C17.9405 7.03202 18.5329 8.43238 19.6274 9.59066V6.00064C19.6274 5.74172 19.8373 5.53184 20.0962 5.53184C20.3552 5.53184 20.565 5.74172 20.565 6.00064V9.59066C21.6594 8.43238 22.252 7.03202 22.252 5.56372C22.252 3.89744 21.4896 2.31907 20.0962 1.08222ZM3.99754 2.76664C3.01727 3.66909 2.48199 4.80482 2.48199 6.00064C2.48199 6.98898 2.84803 7.93648 3.52874 8.74517V5.6256C3.52874 5.36668 3.73876 5.1568 3.99754 5.1568C4.25646 5.1568 4.46635 5.36668 4.46635 5.6256V8.74517C5.14705 7.93648 5.5131 6.98898 5.5131 6.00064C5.5131 4.80482 4.97781 3.6689 3.99754 2.76664ZM11.3653 9.64157H15.4032L13.7101 7.93831H9.6721L11.3653 9.64157ZM10.0433 9.64157L8.54495 8.13446L7.04679 9.64157H10.0433ZM10.7015 10.5792H6.38845V12.0931C6.60822 12.1433 6.82688 12.1971 7.04478 12.2539V11.6964C7.04478 11.4377 7.2548 11.2276 7.51358 11.2276H9.57632C9.83524 11.2276 10.0451 11.4377 10.0451 11.6964V13.271C10.2654 13.3638 10.4841 13.4605 10.7015 13.5605V10.5792ZM7.98239 12.5203C8.36071 12.637 8.73576 12.7641 9.10752 12.901V12.1652H7.98239V12.5203ZM11.6391 10.5792V14.0192C12.0978 14.2571 12.549 14.5117 12.9922 14.7823C13.2297 14.6369 13.47 14.4952 13.7132 14.3587C14.4739 13.9317 15.2586 13.5519 16.0616 13.2192V10.5792H11.6391ZM24.5312 15.0231C22.4353 15.0231 20.3609 15.3812 18.3655 16.0873C18.1214 16.1735 17.9936 16.4414 18.08 16.6856C18.148 16.878 18.3289 16.9982 18.5219 16.9982C18.5737 16.9982 18.6265 16.9893 18.6783 16.9711C20.5729 16.3006 22.5421 15.9607 24.5312 15.9607C24.7901 15.9607 25 15.7508 25 15.4919C25 15.233 24.7901 15.0231 24.5312 15.0231ZM14.1043 18.2368C14.3188 18.0918 14.6101 18.1482 14.7552 18.3628C14.9 18.5774 14.8436 18.8688 14.6291 19.0136C12.725 20.2998 11.1173 21.9085 9.85048 23.7953C9.76 23.9299 9.61167 24.0028 9.46076 24.0028C9.37084 24.0028 9.28022 23.9769 9.19983 23.9231C8.98483 23.7788 8.92768 23.4874 9.07198 23.2724C10.4066 21.2851 12.0996 19.5909 14.1043 18.2368ZM13.9882 23.2032C16.7732 20.403 20.6159 18.797 24.5312 18.797C24.7901 18.797 25 19.0071 25 19.2658C25 19.5247 24.7901 19.7346 24.5312 19.7346C20.8637 19.7346 17.2633 21.2399 14.653 23.8645C14.5612 23.9566 14.4409 24.0026 14.3206 24.0026C14.2008 24.0026 14.0814 23.9571 13.9899 23.8661C13.8063 23.6837 13.8055 23.3869 13.9882 23.2032ZM20.0962 4.68799C20.2195 4.68799 20.3405 4.63783 20.4277 4.55044C20.5149 4.46329 20.565 4.34243 20.565 4.21919C20.565 4.09575 20.515 3.97489 20.4277 3.88774C20.3405 3.80036 20.2195 3.75038 20.0962 3.75038C19.973 3.75038 19.852 3.80036 19.765 3.88774C19.6776 3.97489 19.6274 4.09575 19.6274 4.21919C19.6274 4.34243 19.6776 4.46329 19.765 4.55044C19.852 4.63764 19.973 4.68799 20.0962 4.68799ZM15.8896 17.4552C15.8896 17.332 15.94 17.2111 16.027 17.124C16.1143 17.0366 16.2352 16.9864 16.3584 16.9864C16.4819 16.9864 16.6027 17.0366 16.6899 17.124C16.7771 17.2111 16.8272 17.332 16.8272 17.4552C16.8272 17.5791 16.7771 17.6995 16.6899 17.7867C16.6027 17.8741 16.4819 17.924 16.3584 17.924C16.2352 17.924 16.1143 17.8741 16.027 17.7867C15.9398 17.6995 15.8896 17.5791 15.8896 17.4552Z" fill="#0973E7"/>
</svg>
